%TF.GenerationSoftware,KiCad,Pcbnew,(6.0.1)*%
%TF.CreationDate,2023-01-12T10:24:06+01:00*%
%TF.ProjectId,MacroPad,4d616372-6f50-4616-942e-6b696361645f,rev?*%
%TF.SameCoordinates,Original*%
%TF.FileFunction,Soldermask,Top*%
%TF.FilePolarity,Negative*%
%FSLAX46Y46*%
G04 Gerber Fmt 4.6, Leading zero omitted, Abs format (unit mm)*
G04 Created by KiCad (PCBNEW (6.0.1)) date 2023-01-12 10:24:06*
%MOMM*%
%LPD*%
G01*
G04 APERTURE LIST*
G04 Aperture macros list*
%AMRoundRect*
0 Rectangle with rounded corners*
0 $1 Rounding radius*
0 $2 $3 $4 $5 $6 $7 $8 $9 X,Y pos of 4 corners*
0 Add a 4 corners polygon primitive as box body*
4,1,4,$2,$3,$4,$5,$6,$7,$8,$9,$2,$3,0*
0 Add four circle primitives for the rounded corners*
1,1,$1+$1,$2,$3*
1,1,$1+$1,$4,$5*
1,1,$1+$1,$6,$7*
1,1,$1+$1,$8,$9*
0 Add four rect primitives between the rounded corners*
20,1,$1+$1,$2,$3,$4,$5,0*
20,1,$1+$1,$4,$5,$6,$7,0*
20,1,$1+$1,$6,$7,$8,$9,0*
20,1,$1+$1,$8,$9,$2,$3,0*%
G04 Aperture macros list end*
%ADD10R,1.500000X1.000000*%
%ADD11C,2.200000*%
%ADD12RoundRect,0.250000X-0.625000X0.400000X-0.625000X-0.400000X0.625000X-0.400000X0.625000X0.400000X0*%
%ADD13C,4.000000*%
%ADD14C,1.550000*%
%ADD15RoundRect,0.250000X-0.412500X-0.650000X0.412500X-0.650000X0.412500X0.650000X-0.412500X0.650000X0*%
%ADD16C,2.000000*%
%ADD17RoundRect,0.250000X0.625000X-0.400000X0.625000X0.400000X-0.625000X0.400000X-0.625000X-0.400000X0*%
%ADD18R,2.000000X2.000000*%
%ADD19C,2.800000*%
%ADD20R,1.700000X1.700000*%
%ADD21O,1.700000X1.700000*%
%ADD22R,1.200000X2.000000*%
%ADD23O,1.200000X2.000000*%
G04 APERTURE END LIST*
D10*
%TO.C,D5*%
X133450000Y-114100000D03*
X133450000Y-110900000D03*
X128550000Y-110900000D03*
X128550000Y-114100000D03*
%TD*%
D11*
%TO.C,REF\u002A\u002A*%
X94000000Y-46000000D03*
%TD*%
D10*
%TO.C,D1*%
X113450000Y-94100000D03*
X113450000Y-90900000D03*
X108550000Y-90900000D03*
X108550000Y-94100000D03*
%TD*%
D11*
%TO.C,REF\u002A\u002A*%
X94000000Y-158000000D03*
%TD*%
D12*
%TO.C,R2*%
X155000000Y-60450000D03*
X155000000Y-63550000D03*
%TD*%
D13*
%TO.C,SW2*%
X131000000Y-87500000D03*
D14*
X127190000Y-84960000D03*
X133540000Y-82420000D03*
%TD*%
%TO.C,SW1*%
X107190000Y-84960000D03*
X113540000Y-82420000D03*
D13*
X111000000Y-87500000D03*
%TD*%
D10*
%TO.C,D6*%
X153450000Y-114100000D03*
X153450000Y-110900000D03*
X148550000Y-110900000D03*
X148550000Y-114100000D03*
%TD*%
D14*
%TO.C,SW8*%
X133540000Y-122420000D03*
D13*
X131000000Y-127500000D03*
D14*
X127190000Y-124960000D03*
%TD*%
D15*
%TO.C,C1*%
X149937500Y-76000000D03*
X153062500Y-76000000D03*
%TD*%
D13*
%TO.C,SW5*%
X131000000Y-107500000D03*
D14*
X133540000Y-102420000D03*
X127190000Y-104960000D03*
%TD*%
D10*
%TO.C,D12*%
X153450000Y-154600000D03*
X153450000Y-151400000D03*
X148550000Y-151400000D03*
X148550000Y-154600000D03*
%TD*%
D11*
%TO.C,REF\u002A\u002A*%
X168000000Y-158000000D03*
%TD*%
D10*
%TO.C,D3*%
X153450000Y-94100000D03*
X153450000Y-90900000D03*
X148550000Y-90900000D03*
X148550000Y-94100000D03*
%TD*%
%TO.C,D7*%
X113450000Y-134100000D03*
X113450000Y-130900000D03*
X108550000Y-130900000D03*
X108550000Y-134100000D03*
%TD*%
D11*
%TO.C,REF\u002A\u002A*%
X168000000Y-46000000D03*
%TD*%
D10*
%TO.C,D2*%
X133450000Y-94100000D03*
X133450000Y-90900000D03*
X128550000Y-90900000D03*
X128550000Y-94100000D03*
%TD*%
D13*
%TO.C,SW11*%
X131000000Y-147500000D03*
D14*
X133540000Y-142420000D03*
X127190000Y-144960000D03*
%TD*%
D16*
%TO.C,SW14*%
X157750000Y-63750000D03*
X164250000Y-63750000D03*
X157750000Y-68250000D03*
X164250000Y-68250000D03*
%TD*%
D10*
%TO.C,D8*%
X133450000Y-134100000D03*
X133450000Y-130900000D03*
X128550000Y-130900000D03*
X128550000Y-134100000D03*
%TD*%
D16*
%TO.C,SW16*%
X125550000Y-63750000D03*
X132050000Y-63750000D03*
X125550000Y-68250000D03*
X132050000Y-68250000D03*
%TD*%
D17*
%TO.C,R4*%
X137000000Y-63600000D03*
X137000000Y-60500000D03*
%TD*%
D18*
%TO.C,SW13*%
X113250000Y-63500000D03*
D16*
X113250000Y-58500000D03*
X113250000Y-61000000D03*
D19*
X105750000Y-55400000D03*
X105750000Y-66600000D03*
D16*
X98750000Y-63500000D03*
X98750000Y-58500000D03*
%TD*%
D10*
%TO.C,D4*%
X113450000Y-114100000D03*
X113450000Y-110900000D03*
X108550000Y-110900000D03*
X108550000Y-114100000D03*
%TD*%
%TO.C,D11*%
X133450000Y-154600000D03*
X133450000Y-151400000D03*
X128550000Y-151400000D03*
X128550000Y-154600000D03*
%TD*%
D14*
%TO.C,SW9*%
X147190000Y-124960000D03*
D13*
X151000000Y-127500000D03*
D14*
X153540000Y-122420000D03*
%TD*%
D10*
%TO.C,D9*%
X153450000Y-134100000D03*
X153450000Y-130900000D03*
X148550000Y-130900000D03*
X148550000Y-134100000D03*
%TD*%
D12*
%TO.C,R1*%
X101000000Y-151450000D03*
X101000000Y-154550000D03*
%TD*%
D20*
%TO.C,O1*%
X162000000Y-57800000D03*
D21*
X162000000Y-55260000D03*
X162000000Y-52720000D03*
X162000000Y-50180000D03*
%TD*%
D14*
%TO.C,SW12*%
X153540000Y-142420000D03*
X147190000Y-144960000D03*
D13*
X151000000Y-147500000D03*
%TD*%
D14*
%TO.C,SW7*%
X113540000Y-122420000D03*
X107190000Y-124960000D03*
D13*
X111000000Y-127500000D03*
%TD*%
%TO.C,SW6*%
X151000000Y-107500000D03*
D14*
X153540000Y-102420000D03*
X147190000Y-104960000D03*
%TD*%
D13*
%TO.C,SW3*%
X151000000Y-87500000D03*
D14*
X147190000Y-84960000D03*
X153540000Y-82420000D03*
%TD*%
%TO.C,SW10*%
X107190000Y-144960000D03*
D13*
X111000000Y-147500000D03*
D14*
X113540000Y-142420000D03*
%TD*%
D12*
%TO.C,R3*%
X152000000Y-60450000D03*
X152000000Y-63550000D03*
%TD*%
D10*
%TO.C,D10*%
X113450000Y-154600000D03*
X113450000Y-151400000D03*
X108550000Y-151400000D03*
X108550000Y-154600000D03*
%TD*%
D16*
%TO.C,SW15*%
X148250000Y-63750000D03*
X141750000Y-63750000D03*
X141750000Y-68250000D03*
X148250000Y-68250000D03*
%TD*%
D14*
%TO.C,SW4*%
X107190000Y-104960000D03*
D13*
X111000000Y-107500000D03*
D14*
X113540000Y-102420000D03*
%TD*%
D22*
%TO.C,U1*%
X139903440Y-75700000D03*
D23*
X137363440Y-75700000D03*
X134823440Y-75700000D03*
X132283440Y-75700000D03*
X129743440Y-75700000D03*
X127203440Y-75700000D03*
X124663440Y-75700000D03*
X122123440Y-75700000D03*
X119583440Y-75700000D03*
X117043440Y-75700000D03*
X114503440Y-75700000D03*
X111963440Y-75700000D03*
X109423440Y-75700000D03*
X106883440Y-75700000D03*
X104343440Y-75700000D03*
X101803440Y-75700000D03*
X99263440Y-75700000D03*
X96723440Y-75700000D03*
X94183440Y-75700000D03*
X94186160Y-50303680D03*
X96726160Y-50303680D03*
X99263440Y-50300000D03*
X101803440Y-50300000D03*
X104343440Y-50300000D03*
X106883440Y-50300000D03*
X109423440Y-50300000D03*
X111963440Y-50300000D03*
X114503440Y-50300000D03*
X117043440Y-50300000D03*
X119583440Y-50300000D03*
X122123440Y-50300000D03*
X124663440Y-50300000D03*
X127203440Y-50300000D03*
X129743440Y-50300000D03*
X132283440Y-50300000D03*
X134823440Y-50300000D03*
X137363440Y-50300000D03*
X139903440Y-50300000D03*
%TD*%
M02*
