%TF.GenerationSoftware,KiCad,Pcbnew,(6.0.1)*%
%TF.CreationDate,2023-01-12T08:56:13+01:00*%
%TF.ProjectId,MacroPad,4d616372-6f50-4616-942e-6b696361645f,rev?*%
%TF.SameCoordinates,Original*%
%TF.FileFunction,Soldermask,Bot*%
%TF.FilePolarity,Negative*%
%FSLAX46Y46*%
G04 Gerber Fmt 4.6, Leading zero omitted, Abs format (unit mm)*
G04 Created by KiCad (PCBNEW (6.0.1)) date 2023-01-12 08:56:13*
%MOMM*%
%LPD*%
G01*
G04 APERTURE LIST*
%ADD10C,4.000000*%
%ADD11C,2.500000*%
%ADD12C,2.200000*%
%ADD13C,2.000000*%
%ADD14R,2.000000X2.000000*%
%ADD15C,2.800000*%
%ADD16R,1.700000X1.700000*%
%ADD17O,1.700000X1.700000*%
%ADD18R,1.200000X2.000000*%
%ADD19O,1.200000X2.000000*%
G04 APERTURE END LIST*
D10*
%TO.C,SW2*%
X131000000Y-87500000D03*
D11*
X127190000Y-84960000D03*
X133540000Y-82420000D03*
%TD*%
D12*
%TO.C,REF\u002A\u002A*%
X168000000Y-46000000D03*
%TD*%
%TO.C,REF\u002A\u002A*%
X94000000Y-46000000D03*
%TD*%
%TO.C,REF\u002A\u002A*%
X94000000Y-158000000D03*
%TD*%
%TO.C,REF\u002A\u002A*%
X168000000Y-158000000D03*
%TD*%
D10*
%TO.C,SW1*%
X111000000Y-87500000D03*
D11*
X107190000Y-84960000D03*
X113540000Y-82420000D03*
%TD*%
D10*
%TO.C,SW8*%
X131000000Y-127500000D03*
D11*
X127190000Y-124960000D03*
X133540000Y-122420000D03*
%TD*%
D10*
%TO.C,SW5*%
X131000000Y-107500000D03*
D11*
X127190000Y-104960000D03*
X133540000Y-102420000D03*
%TD*%
D10*
%TO.C,SW11*%
X131000000Y-147500000D03*
D11*
X127190000Y-144960000D03*
X133540000Y-142420000D03*
%TD*%
D13*
%TO.C,SW14*%
X157750000Y-63750000D03*
X164250000Y-63750000D03*
X157750000Y-68250000D03*
X164250000Y-68250000D03*
%TD*%
%TO.C,SW16*%
X125550000Y-63750000D03*
X132050000Y-63750000D03*
X125550000Y-68250000D03*
X132050000Y-68250000D03*
%TD*%
D14*
%TO.C,SW13*%
X113250000Y-63500000D03*
D13*
X113250000Y-58500000D03*
X113250000Y-61000000D03*
D15*
X105750000Y-55400000D03*
X105750000Y-66600000D03*
D13*
X98750000Y-63500000D03*
X98750000Y-58500000D03*
%TD*%
D10*
%TO.C,SW9*%
X151000000Y-127500000D03*
D11*
X147190000Y-124960000D03*
X153540000Y-122420000D03*
%TD*%
D16*
%TO.C,O1*%
X162000000Y-57800000D03*
D17*
X162000000Y-55260000D03*
X162000000Y-52720000D03*
X162000000Y-50180000D03*
%TD*%
D10*
%TO.C,SW12*%
X151000000Y-147500000D03*
D11*
X147190000Y-144960000D03*
X153540000Y-142420000D03*
%TD*%
D10*
%TO.C,SW7*%
X111000000Y-127500000D03*
D11*
X107190000Y-124960000D03*
X113540000Y-122420000D03*
%TD*%
D10*
%TO.C,SW6*%
X151000000Y-107500000D03*
D11*
X147190000Y-104960000D03*
X153540000Y-102420000D03*
%TD*%
D10*
%TO.C,SW3*%
X151000000Y-87500000D03*
D11*
X147190000Y-84960000D03*
X153540000Y-82420000D03*
%TD*%
D10*
%TO.C,SW10*%
X111000000Y-147500000D03*
D11*
X107190000Y-144960000D03*
X113540000Y-142420000D03*
%TD*%
D13*
%TO.C,SW15*%
X148250000Y-63750000D03*
X141750000Y-63750000D03*
X141750000Y-68250000D03*
X148250000Y-68250000D03*
%TD*%
D10*
%TO.C,SW4*%
X111000000Y-107500000D03*
D11*
X107190000Y-104960000D03*
X113540000Y-102420000D03*
%TD*%
D18*
%TO.C,U1*%
X139903440Y-75700000D03*
D19*
X137363440Y-75700000D03*
X134823440Y-75700000D03*
X132283440Y-75700000D03*
X129743440Y-75700000D03*
X127203440Y-75700000D03*
X124663440Y-75700000D03*
X122123440Y-75700000D03*
X119583440Y-75700000D03*
X117043440Y-75700000D03*
X114503440Y-75700000D03*
X111963440Y-75700000D03*
X109423440Y-75700000D03*
X106883440Y-75700000D03*
X104343440Y-75700000D03*
X101803440Y-75700000D03*
X99263440Y-75700000D03*
X96723440Y-75700000D03*
X94183440Y-75700000D03*
X94186160Y-50303680D03*
X96726160Y-50303680D03*
X99263440Y-50300000D03*
X101803440Y-50300000D03*
X104343440Y-50300000D03*
X106883440Y-50300000D03*
X109423440Y-50300000D03*
X111963440Y-50300000D03*
X114503440Y-50300000D03*
X117043440Y-50300000D03*
X119583440Y-50300000D03*
X122123440Y-50300000D03*
X124663440Y-50300000D03*
X127203440Y-50300000D03*
X129743440Y-50300000D03*
X132283440Y-50300000D03*
X134823440Y-50300000D03*
X137363440Y-50300000D03*
X139903440Y-50300000D03*
%TD*%
M02*
