%TF.GenerationSoftware,KiCad,Pcbnew,(6.0.1)*%
%TF.CreationDate,2023-01-12T08:56:13+01:00*%
%TF.ProjectId,MacroPad,4d616372-6f50-4616-942e-6b696361645f,rev?*%
%TF.SameCoordinates,Original*%
%TF.FileFunction,Paste,Top*%
%TF.FilePolarity,Positive*%
%FSLAX46Y46*%
G04 Gerber Fmt 4.6, Leading zero omitted, Abs format (unit mm)*
G04 Created by KiCad (PCBNEW (6.0.1)) date 2023-01-12 08:56:13*
%MOMM*%
%LPD*%
G01*
G04 APERTURE LIST*
G04 Aperture macros list*
%AMRoundRect*
0 Rectangle with rounded corners*
0 $1 Rounding radius*
0 $2 $3 $4 $5 $6 $7 $8 $9 X,Y pos of 4 corners*
0 Add a 4 corners polygon primitive as box body*
4,1,4,$2,$3,$4,$5,$6,$7,$8,$9,$2,$3,0*
0 Add four circle primitives for the rounded corners*
1,1,$1+$1,$2,$3*
1,1,$1+$1,$4,$5*
1,1,$1+$1,$6,$7*
1,1,$1+$1,$8,$9*
0 Add four rect primitives between the rounded corners*
20,1,$1+$1,$2,$3,$4,$5,0*
20,1,$1+$1,$4,$5,$6,$7,0*
20,1,$1+$1,$6,$7,$8,$9,0*
20,1,$1+$1,$8,$9,$2,$3,0*%
G04 Aperture macros list end*
%ADD10R,1.500000X1.000000*%
%ADD11RoundRect,0.250000X-0.625000X0.400000X-0.625000X-0.400000X0.625000X-0.400000X0.625000X0.400000X0*%
%ADD12RoundRect,0.250000X-0.412500X-0.650000X0.412500X-0.650000X0.412500X0.650000X-0.412500X0.650000X0*%
%ADD13RoundRect,0.250000X0.625000X-0.400000X0.625000X0.400000X-0.625000X0.400000X-0.625000X-0.400000X0*%
G04 APERTURE END LIST*
D10*
%TO.C,D5*%
X133450000Y-114100000D03*
X133450000Y-110900000D03*
X128550000Y-110900000D03*
X128550000Y-114100000D03*
%TD*%
%TO.C,D1*%
X113450000Y-94100000D03*
X113450000Y-90900000D03*
X108550000Y-90900000D03*
X108550000Y-94100000D03*
%TD*%
D11*
%TO.C,R2*%
X155000000Y-60450000D03*
X155000000Y-63550000D03*
%TD*%
D10*
%TO.C,D6*%
X153450000Y-114100000D03*
X153450000Y-110900000D03*
X148550000Y-110900000D03*
X148550000Y-114100000D03*
%TD*%
D12*
%TO.C,C1*%
X149937500Y-76000000D03*
X153062500Y-76000000D03*
%TD*%
D10*
%TO.C,D12*%
X153450000Y-154600000D03*
X153450000Y-151400000D03*
X148550000Y-151400000D03*
X148550000Y-154600000D03*
%TD*%
%TO.C,D3*%
X153450000Y-94100000D03*
X153450000Y-90900000D03*
X148550000Y-90900000D03*
X148550000Y-94100000D03*
%TD*%
%TO.C,D7*%
X113450000Y-134100000D03*
X113450000Y-130900000D03*
X108550000Y-130900000D03*
X108550000Y-134100000D03*
%TD*%
%TO.C,D2*%
X133450000Y-94100000D03*
X133450000Y-90900000D03*
X128550000Y-90900000D03*
X128550000Y-94100000D03*
%TD*%
%TO.C,D8*%
X133450000Y-134100000D03*
X133450000Y-130900000D03*
X128550000Y-130900000D03*
X128550000Y-134100000D03*
%TD*%
D13*
%TO.C,R4*%
X137000000Y-63600000D03*
X137000000Y-60500000D03*
%TD*%
D10*
%TO.C,D4*%
X113450000Y-114100000D03*
X113450000Y-110900000D03*
X108550000Y-110900000D03*
X108550000Y-114100000D03*
%TD*%
%TO.C,D11*%
X133450000Y-154600000D03*
X133450000Y-151400000D03*
X128550000Y-151400000D03*
X128550000Y-154600000D03*
%TD*%
%TO.C,D9*%
X153450000Y-134100000D03*
X153450000Y-130900000D03*
X148550000Y-130900000D03*
X148550000Y-134100000D03*
%TD*%
D11*
%TO.C,R1*%
X101000000Y-151450000D03*
X101000000Y-154550000D03*
%TD*%
%TO.C,R3*%
X152000000Y-60450000D03*
X152000000Y-63550000D03*
%TD*%
D10*
%TO.C,D10*%
X113450000Y-154600000D03*
X113450000Y-151400000D03*
X108550000Y-151400000D03*
X108550000Y-154600000D03*
%TD*%
M02*
