M48
; DRILL file {KiCad (6.0.1)} date Thu Jan 12 08:56:56 2023
; FORMAT={-:-/ absolute / metric / decimal}
; #@! TF.CreationDate,2023-01-12T08:56:56+01:00
; #@! TF.GenerationSoftware,Kicad,Pcbnew,(6.0.1)
; #@! TF.FileFunction,Plated,1,2,PTH
FMAT,2
METRIC
; #@! TA.AperFunction,Plated,PTH,ComponentDrill
T1C0.800
; #@! TA.AperFunction,Plated,PTH,ComponentDrill
T2C1.000
; #@! TA.AperFunction,Plated,PTH,ComponentDrill
T3C1.100
; #@! TA.AperFunction,Plated,PTH,ComponentDrill
T4C1.500
; #@! TA.AperFunction,Plated,PTH,ComponentDrill
T5C2.200
%
G90
G05
T1
X94.183Y75.7
X94.186Y50.304
X96.723Y75.7
X96.726Y50.304
X99.263Y50.3
X99.263Y75.7
X101.803Y50.3
X101.803Y75.7
X104.343Y50.3
X104.343Y75.7
X106.883Y50.3
X106.883Y75.7
X109.423Y50.3
X109.423Y75.7
X111.963Y50.3
X111.963Y75.7
X114.503Y50.3
X114.503Y75.7
X117.043Y50.3
X117.043Y75.7
X119.583Y50.3
X119.583Y75.7
X122.123Y50.3
X122.123Y75.7
X124.663Y50.3
X124.663Y75.7
X127.203Y50.3
X127.203Y75.7
X129.743Y50.3
X129.743Y75.7
X132.283Y50.3
X132.283Y75.7
X134.823Y50.3
X134.823Y75.7
X137.363Y50.3
X137.363Y75.7
X139.903Y50.3
X139.903Y75.7
T2
X98.75Y58.5
X98.75Y63.5
X113.25Y58.5
X113.25Y61.0
X113.25Y63.5
X162.0Y50.18
X162.0Y52.72
X162.0Y55.26
X162.0Y57.8
T3
X125.55Y63.75
X125.55Y68.25
X132.05Y63.75
X132.05Y68.25
X141.75Y63.75
X141.75Y68.25
X148.25Y63.75
X148.25Y68.25
X157.75Y63.75
X157.75Y68.25
X164.25Y63.75
X164.25Y68.25
T4
X107.19Y84.96
X107.19Y104.96
X107.19Y124.96
X107.19Y144.96
X113.54Y82.42
X113.54Y102.42
X113.54Y122.42
X113.54Y142.42
X127.19Y84.96
X127.19Y104.96
X127.19Y124.96
X127.19Y144.96
X133.54Y82.42
X133.54Y102.42
X133.54Y122.42
X133.54Y142.42
X147.19Y84.96
X147.19Y104.96
X147.19Y124.96
X147.19Y144.96
X153.54Y82.42
X153.54Y102.42
X153.54Y122.42
X153.54Y142.42
T5
X105.75Y55.4
X105.75Y66.6
T0
M30
