%TF.GenerationSoftware,KiCad,Pcbnew,(6.0.1)*%
%TF.CreationDate,2023-01-12T10:24:06+01:00*%
%TF.ProjectId,MacroPad,4d616372-6f50-4616-942e-6b696361645f,rev?*%
%TF.SameCoordinates,Original*%
%TF.FileFunction,Legend,Bot*%
%TF.FilePolarity,Positive*%
%FSLAX46Y46*%
G04 Gerber Fmt 4.6, Leading zero omitted, Abs format (unit mm)*
G04 Created by KiCad (PCBNEW (6.0.1)) date 2023-01-12 10:24:06*
%MOMM*%
%LPD*%
G01*
G04 APERTURE LIST*
%ADD10C,0.150000*%
%ADD11C,0.120000*%
G04 APERTURE END LIST*
D10*
%TO.C,U1*%
X141455820Y-62238095D02*
X142265344Y-62238095D01*
X142360582Y-62285714D01*
X142408201Y-62333333D01*
X142455820Y-62428571D01*
X142455820Y-62619047D01*
X142408201Y-62714285D01*
X142360582Y-62761904D01*
X142265344Y-62809523D01*
X141455820Y-62809523D01*
X142455820Y-63809523D02*
X142455820Y-63238095D01*
X142455820Y-63523809D02*
X141455820Y-63523809D01*
X141598678Y-63428571D01*
X141693916Y-63333333D01*
X141741535Y-63238095D01*
X121368678Y-62928571D02*
X121035344Y-62928571D01*
X120892487Y-63452380D02*
X121368678Y-63452380D01*
X121368678Y-62452380D01*
X120892487Y-62452380D01*
X120511535Y-63404761D02*
X120368678Y-63452380D01*
X120130582Y-63452380D01*
X120035344Y-63404761D01*
X119987725Y-63357142D01*
X119940106Y-63261904D01*
X119940106Y-63166666D01*
X119987725Y-63071428D01*
X120035344Y-63023809D01*
X120130582Y-62976190D01*
X120321059Y-62928571D01*
X120416297Y-62880952D01*
X120463916Y-62833333D01*
X120511535Y-62738095D01*
X120511535Y-62642857D01*
X120463916Y-62547619D01*
X120416297Y-62500000D01*
X120321059Y-62452380D01*
X120082963Y-62452380D01*
X119940106Y-62500000D01*
X119511535Y-63452380D02*
X119511535Y-62452380D01*
X119130582Y-62452380D01*
X119035344Y-62500000D01*
X118987725Y-62547619D01*
X118940106Y-62642857D01*
X118940106Y-62785714D01*
X118987725Y-62880952D01*
X119035344Y-62928571D01*
X119130582Y-62976190D01*
X119511535Y-62976190D01*
X118606773Y-62452380D02*
X117987725Y-62452380D01*
X118321059Y-62833333D01*
X118178201Y-62833333D01*
X118082963Y-62880952D01*
X118035344Y-62928571D01*
X117987725Y-63023809D01*
X117987725Y-63261904D01*
X118035344Y-63357142D01*
X118082963Y-63404761D01*
X118178201Y-63452380D01*
X118463916Y-63452380D01*
X118559154Y-63404761D01*
X118606773Y-63357142D01*
X117606773Y-62547619D02*
X117559154Y-62500000D01*
X117463916Y-62452380D01*
X117225820Y-62452380D01*
X117130582Y-62500000D01*
X117082963Y-62547619D01*
X117035344Y-62642857D01*
X117035344Y-62738095D01*
X117082963Y-62880952D01*
X117654392Y-63452380D01*
X117035344Y-63452380D01*
X116606773Y-63071428D02*
X115844868Y-63071428D01*
X115368678Y-63452380D02*
X115368678Y-62452380D01*
X115130582Y-62452380D01*
X114987725Y-62500000D01*
X114892487Y-62595238D01*
X114844868Y-62690476D01*
X114797249Y-62880952D01*
X114797249Y-63023809D01*
X114844868Y-63214285D01*
X114892487Y-63309523D01*
X114987725Y-63404761D01*
X115130582Y-63452380D01*
X115368678Y-63452380D01*
X113987725Y-63404761D02*
X114082963Y-63452380D01*
X114273440Y-63452380D01*
X114368678Y-63404761D01*
X114416297Y-63309523D01*
X114416297Y-62928571D01*
X114368678Y-62833333D01*
X114273440Y-62785714D01*
X114082963Y-62785714D01*
X113987725Y-62833333D01*
X113940106Y-62928571D01*
X113940106Y-63023809D01*
X114416297Y-63119047D01*
X113606773Y-62785714D02*
X113368678Y-63452380D01*
X113130582Y-62785714D01*
X112749630Y-63452380D02*
X112749630Y-62452380D01*
X112178201Y-63452380D02*
X112606773Y-62880952D01*
X112178201Y-62452380D02*
X112749630Y-63023809D01*
X111749630Y-63452380D02*
X111749630Y-62785714D01*
X111749630Y-62452380D02*
X111797249Y-62500000D01*
X111749630Y-62547619D01*
X111702011Y-62500000D01*
X111749630Y-62452380D01*
X111749630Y-62547619D01*
X111416297Y-62785714D02*
X111035344Y-62785714D01*
X111273440Y-62452380D02*
X111273440Y-63309523D01*
X111225820Y-63404761D01*
X111130582Y-63452380D01*
X111035344Y-63452380D01*
X110130582Y-63357142D02*
X110178201Y-63404761D01*
X110321059Y-63452380D01*
X110416297Y-63452380D01*
X110559154Y-63404761D01*
X110654392Y-63309523D01*
X110702011Y-63214285D01*
X110749630Y-63023809D01*
X110749630Y-62880952D01*
X110702011Y-62690476D01*
X110654392Y-62595238D01*
X110559154Y-62500000D01*
X110416297Y-62452380D01*
X110321059Y-62452380D01*
X110178201Y-62500000D01*
X110130582Y-62547619D01*
X135173440Y-54934166D02*
X135206773Y-55000833D01*
X135206773Y-55100833D01*
X135173440Y-55200833D01*
X135106773Y-55267500D01*
X135040106Y-55300833D01*
X134906773Y-55334166D01*
X134806773Y-55334166D01*
X134673440Y-55300833D01*
X134606773Y-55267500D01*
X134540106Y-55200833D01*
X134506773Y-55100833D01*
X134506773Y-55034166D01*
X134540106Y-54934166D01*
X134573440Y-54900833D01*
X134806773Y-54900833D01*
X134806773Y-55034166D01*
X134506773Y-54600833D02*
X135206773Y-54600833D01*
X135206773Y-54334166D01*
X135173440Y-54267500D01*
X135140106Y-54234166D01*
X135073440Y-54200833D01*
X134973440Y-54200833D01*
X134906773Y-54234166D01*
X134873440Y-54267500D01*
X134840106Y-54334166D01*
X134840106Y-54600833D01*
X134506773Y-53900833D02*
X135206773Y-53900833D01*
X135206773Y-53434166D02*
X135206773Y-53300833D01*
X135173440Y-53234166D01*
X135106773Y-53167500D01*
X134973440Y-53134166D01*
X134740106Y-53134166D01*
X134606773Y-53167500D01*
X134540106Y-53234166D01*
X134506773Y-53300833D01*
X134506773Y-53434166D01*
X134540106Y-53500833D01*
X134606773Y-53567500D01*
X134740106Y-53600833D01*
X134973440Y-53600833D01*
X135106773Y-53567500D01*
X135173440Y-53500833D01*
X135206773Y-53434166D01*
X135140106Y-52867500D02*
X135173440Y-52834166D01*
X135206773Y-52767500D01*
X135206773Y-52600833D01*
X135173440Y-52534166D01*
X135140106Y-52500833D01*
X135073440Y-52467500D01*
X135006773Y-52467500D01*
X134906773Y-52500833D01*
X134506773Y-52900833D01*
X134506773Y-52467500D01*
X135140106Y-52200833D02*
X135173440Y-52167500D01*
X135206773Y-52100833D01*
X135206773Y-51934166D01*
X135173440Y-51867500D01*
X135140106Y-51834166D01*
X135073440Y-51800833D01*
X135006773Y-51800833D01*
X134906773Y-51834166D01*
X134506773Y-52234166D01*
X134506773Y-51800833D01*
X137437588Y-74196894D02*
X137437588Y-73863560D01*
X136913779Y-73720703D02*
X136913779Y-74196894D01*
X137913779Y-74196894D01*
X137913779Y-73720703D01*
X136913779Y-73292132D02*
X137913779Y-73292132D01*
X136913779Y-72720703D01*
X137913779Y-72720703D01*
X137961398Y-71530227D02*
X136675683Y-72387370D01*
X136913779Y-70625465D02*
X137389969Y-70958799D01*
X136913779Y-71196894D02*
X137913779Y-71196894D01*
X137913779Y-70815941D01*
X137866160Y-70720703D01*
X137818540Y-70673084D01*
X137723302Y-70625465D01*
X137580445Y-70625465D01*
X137485207Y-70673084D01*
X137437588Y-70720703D01*
X137389969Y-70815941D01*
X137389969Y-71196894D01*
X137437588Y-70196894D02*
X137437588Y-69863560D01*
X136913779Y-69720703D02*
X136913779Y-70196894D01*
X137913779Y-70196894D01*
X137913779Y-69720703D01*
X136961398Y-69339751D02*
X136913779Y-69196894D01*
X136913779Y-68958799D01*
X136961398Y-68863560D01*
X137009017Y-68815941D01*
X137104255Y-68768322D01*
X137199493Y-68768322D01*
X137294731Y-68815941D01*
X137342350Y-68863560D01*
X137389969Y-68958799D01*
X137437588Y-69149275D01*
X137485207Y-69244513D01*
X137532826Y-69292132D01*
X137628064Y-69339751D01*
X137723302Y-69339751D01*
X137818540Y-69292132D01*
X137866160Y-69244513D01*
X137913779Y-69149275D01*
X137913779Y-68911180D01*
X137866160Y-68768322D01*
X137437588Y-68339751D02*
X137437588Y-68006418D01*
X136913779Y-67863560D02*
X136913779Y-68339751D01*
X137913779Y-68339751D01*
X137913779Y-67863560D01*
X137913779Y-67577846D02*
X137913779Y-67006418D01*
X136913779Y-67292132D02*
X137913779Y-67292132D01*
X132633440Y-58300833D02*
X132666773Y-58367500D01*
X132666773Y-58467500D01*
X132633440Y-58567500D01*
X132566773Y-58634166D01*
X132500106Y-58667500D01*
X132366773Y-58700833D01*
X132266773Y-58700833D01*
X132133440Y-58667500D01*
X132066773Y-58634166D01*
X132000106Y-58567500D01*
X131966773Y-58467500D01*
X131966773Y-58400833D01*
X132000106Y-58300833D01*
X132033440Y-58267500D01*
X132266773Y-58267500D01*
X132266773Y-58400833D01*
X131966773Y-57967500D02*
X132666773Y-57967500D01*
X132666773Y-57700833D01*
X132633440Y-57634166D01*
X132600106Y-57600833D01*
X132533440Y-57567500D01*
X132433440Y-57567500D01*
X132366773Y-57600833D01*
X132333440Y-57634166D01*
X132300106Y-57700833D01*
X132300106Y-57967500D01*
X131966773Y-57267500D02*
X132666773Y-57267500D01*
X132666773Y-56800833D02*
X132666773Y-56667500D01*
X132633440Y-56600833D01*
X132566773Y-56534166D01*
X132433440Y-56500833D01*
X132200106Y-56500833D01*
X132066773Y-56534166D01*
X132000106Y-56600833D01*
X131966773Y-56667500D01*
X131966773Y-56800833D01*
X132000106Y-56867500D01*
X132066773Y-56934166D01*
X132200106Y-56967500D01*
X132433440Y-56967500D01*
X132566773Y-56934166D01*
X132633440Y-56867500D01*
X132666773Y-56800833D01*
X131966773Y-55834166D02*
X131966773Y-56234166D01*
X131966773Y-56034166D02*
X132666773Y-56034166D01*
X132566773Y-56100833D01*
X132500106Y-56167500D01*
X132466773Y-56234166D01*
X132700106Y-55034166D02*
X131800106Y-55634166D01*
X132666773Y-54800833D02*
X132100106Y-54800833D01*
X132033440Y-54767500D01*
X132000106Y-54734166D01*
X131966773Y-54667500D01*
X131966773Y-54534166D01*
X132000106Y-54467500D01*
X132033440Y-54434166D01*
X132100106Y-54400833D01*
X132666773Y-54400833D01*
X132666773Y-53934166D02*
X132666773Y-53867500D01*
X132633440Y-53800833D01*
X132600106Y-53767500D01*
X132533440Y-53734166D01*
X132400106Y-53700833D01*
X132233440Y-53700833D01*
X132100106Y-53734166D01*
X132033440Y-53767500D01*
X132000106Y-53800833D01*
X131966773Y-53867500D01*
X131966773Y-53934166D01*
X132000106Y-54000833D01*
X132033440Y-54034166D01*
X132100106Y-54067500D01*
X132233440Y-54100833D01*
X132400106Y-54100833D01*
X132533440Y-54067500D01*
X132600106Y-54034166D01*
X132633440Y-54000833D01*
X132666773Y-53934166D01*
X132666773Y-53500833D02*
X132666773Y-53100833D01*
X131966773Y-53300833D02*
X132666773Y-53300833D01*
X132666773Y-52934166D02*
X131966773Y-52467500D01*
X132666773Y-52467500D02*
X131966773Y-52934166D01*
X131966773Y-52200833D02*
X132666773Y-52200833D01*
X132666773Y-52034166D01*
X132633440Y-51934166D01*
X132566773Y-51867500D01*
X132500106Y-51834166D01*
X132366773Y-51800833D01*
X132266773Y-51800833D01*
X132133440Y-51834166D01*
X132066773Y-51867500D01*
X132000106Y-51934166D01*
X131966773Y-52034166D01*
X131966773Y-52200833D01*
X117393440Y-54267500D02*
X117426773Y-54334166D01*
X117426773Y-54434166D01*
X117393440Y-54534166D01*
X117326773Y-54600833D01*
X117260106Y-54634166D01*
X117126773Y-54667500D01*
X117026773Y-54667500D01*
X116893440Y-54634166D01*
X116826773Y-54600833D01*
X116760106Y-54534166D01*
X116726773Y-54434166D01*
X116726773Y-54367500D01*
X116760106Y-54267500D01*
X116793440Y-54234166D01*
X117026773Y-54234166D01*
X117026773Y-54367500D01*
X116726773Y-53934166D02*
X117426773Y-53934166D01*
X117426773Y-53667500D01*
X117393440Y-53600833D01*
X117360106Y-53567500D01*
X117293440Y-53534166D01*
X117193440Y-53534166D01*
X117126773Y-53567500D01*
X117093440Y-53600833D01*
X117060106Y-53667500D01*
X117060106Y-53934166D01*
X116726773Y-53234166D02*
X117426773Y-53234166D01*
X117426773Y-52767500D02*
X117426773Y-52634166D01*
X117393440Y-52567500D01*
X117326773Y-52500833D01*
X117193440Y-52467500D01*
X116960106Y-52467500D01*
X116826773Y-52500833D01*
X116760106Y-52567500D01*
X116726773Y-52634166D01*
X116726773Y-52767500D01*
X116760106Y-52834166D01*
X116826773Y-52900833D01*
X116960106Y-52934166D01*
X117193440Y-52934166D01*
X117326773Y-52900833D01*
X117393440Y-52834166D01*
X117426773Y-52767500D01*
X117426773Y-51834166D02*
X117426773Y-52167500D01*
X117093440Y-52200833D01*
X117126773Y-52167500D01*
X117160106Y-52100833D01*
X117160106Y-51934166D01*
X117126773Y-51867500D01*
X117093440Y-51834166D01*
X117026773Y-51800833D01*
X116860106Y-51800833D01*
X116793440Y-51834166D01*
X116760106Y-51867500D01*
X116726773Y-51934166D01*
X116726773Y-52100833D01*
X116760106Y-52167500D01*
X116793440Y-52200833D01*
X127553440Y-54934166D02*
X127586773Y-55000833D01*
X127586773Y-55100833D01*
X127553440Y-55200833D01*
X127486773Y-55267500D01*
X127420106Y-55300833D01*
X127286773Y-55334166D01*
X127186773Y-55334166D01*
X127053440Y-55300833D01*
X126986773Y-55267500D01*
X126920106Y-55200833D01*
X126886773Y-55100833D01*
X126886773Y-55034166D01*
X126920106Y-54934166D01*
X126953440Y-54900833D01*
X127186773Y-54900833D01*
X127186773Y-55034166D01*
X126886773Y-54600833D02*
X127586773Y-54600833D01*
X127586773Y-54334166D01*
X127553440Y-54267500D01*
X127520106Y-54234166D01*
X127453440Y-54200833D01*
X127353440Y-54200833D01*
X127286773Y-54234166D01*
X127253440Y-54267500D01*
X127220106Y-54334166D01*
X127220106Y-54600833D01*
X126886773Y-53900833D02*
X127586773Y-53900833D01*
X127586773Y-53434166D02*
X127586773Y-53300833D01*
X127553440Y-53234166D01*
X127486773Y-53167500D01*
X127353440Y-53134166D01*
X127120106Y-53134166D01*
X126986773Y-53167500D01*
X126920106Y-53234166D01*
X126886773Y-53300833D01*
X126886773Y-53434166D01*
X126920106Y-53500833D01*
X126986773Y-53567500D01*
X127120106Y-53600833D01*
X127353440Y-53600833D01*
X127486773Y-53567500D01*
X127553440Y-53500833D01*
X127586773Y-53434166D01*
X127520106Y-52867500D02*
X127553440Y-52834166D01*
X127586773Y-52767500D01*
X127586773Y-52600833D01*
X127553440Y-52534166D01*
X127520106Y-52500833D01*
X127453440Y-52467500D01*
X127386773Y-52467500D01*
X127286773Y-52500833D01*
X126886773Y-52900833D01*
X126886773Y-52467500D01*
X126886773Y-51800833D02*
X126886773Y-52200833D01*
X126886773Y-52000833D02*
X127586773Y-52000833D01*
X127486773Y-52067500D01*
X127420106Y-52134166D01*
X127386773Y-52200833D01*
X102153440Y-58434166D02*
X102186773Y-58500833D01*
X102186773Y-58600833D01*
X102153440Y-58700833D01*
X102086773Y-58767500D01*
X102020106Y-58800833D01*
X101886773Y-58834166D01*
X101786773Y-58834166D01*
X101653440Y-58800833D01*
X101586773Y-58767500D01*
X101520106Y-58700833D01*
X101486773Y-58600833D01*
X101486773Y-58534166D01*
X101520106Y-58434166D01*
X101553440Y-58400833D01*
X101786773Y-58400833D01*
X101786773Y-58534166D01*
X101486773Y-58100833D02*
X102186773Y-58100833D01*
X102186773Y-57834166D01*
X102153440Y-57767500D01*
X102120106Y-57734166D01*
X102053440Y-57700833D01*
X101953440Y-57700833D01*
X101886773Y-57734166D01*
X101853440Y-57767500D01*
X101820106Y-57834166D01*
X101820106Y-58100833D01*
X101486773Y-57400833D02*
X102186773Y-57400833D01*
X102186773Y-56934166D02*
X102186773Y-56800833D01*
X102153440Y-56734166D01*
X102086773Y-56667500D01*
X101953440Y-56634166D01*
X101720106Y-56634166D01*
X101586773Y-56667500D01*
X101520106Y-56734166D01*
X101486773Y-56800833D01*
X101486773Y-56934166D01*
X101520106Y-57000833D01*
X101586773Y-57067500D01*
X101720106Y-57100833D01*
X101953440Y-57100833D01*
X102086773Y-57067500D01*
X102153440Y-57000833D01*
X102186773Y-56934166D01*
X101486773Y-55967500D02*
X101486773Y-56367500D01*
X101486773Y-56167500D02*
X102186773Y-56167500D01*
X102086773Y-56234166D01*
X102020106Y-56300833D01*
X101986773Y-56367500D01*
X102186773Y-55334166D02*
X102186773Y-55667500D01*
X101853440Y-55700833D01*
X101886773Y-55667500D01*
X101920106Y-55600833D01*
X101920106Y-55434166D01*
X101886773Y-55367500D01*
X101853440Y-55334166D01*
X101786773Y-55300833D01*
X101620106Y-55300833D01*
X101553440Y-55334166D01*
X101520106Y-55367500D01*
X101486773Y-55434166D01*
X101486773Y-55600833D01*
X101520106Y-55667500D01*
X101553440Y-55700833D01*
X102220106Y-54500833D02*
X101320106Y-55100833D01*
X101486773Y-54267500D02*
X102186773Y-54267500D01*
X101686773Y-54034166D01*
X102186773Y-53800833D01*
X101486773Y-53800833D01*
X102186773Y-53567500D02*
X102186773Y-53167500D01*
X101486773Y-53367500D02*
X102186773Y-53367500D01*
X101486773Y-52934166D02*
X102186773Y-52934166D01*
X102186773Y-52767500D01*
X102153440Y-52667500D01*
X102086773Y-52600833D01*
X102020106Y-52567500D01*
X101886773Y-52534166D01*
X101786773Y-52534166D01*
X101653440Y-52567500D01*
X101586773Y-52600833D01*
X101520106Y-52667500D01*
X101486773Y-52767500D01*
X101486773Y-52934166D01*
X102186773Y-52100833D02*
X102186773Y-51967500D01*
X102153440Y-51900833D01*
X102086773Y-51834166D01*
X101953440Y-51800833D01*
X101720106Y-51800833D01*
X101586773Y-51834166D01*
X101520106Y-51900833D01*
X101486773Y-51967500D01*
X101486773Y-52100833D01*
X101520106Y-52167500D01*
X101586773Y-52234166D01*
X101720106Y-52267500D01*
X101953440Y-52267500D01*
X102086773Y-52234166D01*
X102153440Y-52167500D01*
X102186773Y-52100833D01*
X107233440Y-54267500D02*
X107266773Y-54334166D01*
X107266773Y-54434166D01*
X107233440Y-54534166D01*
X107166773Y-54600833D01*
X107100106Y-54634166D01*
X106966773Y-54667500D01*
X106866773Y-54667500D01*
X106733440Y-54634166D01*
X106666773Y-54600833D01*
X106600106Y-54534166D01*
X106566773Y-54434166D01*
X106566773Y-54367500D01*
X106600106Y-54267500D01*
X106633440Y-54234166D01*
X106866773Y-54234166D01*
X106866773Y-54367500D01*
X106566773Y-53934166D02*
X107266773Y-53934166D01*
X107266773Y-53667500D01*
X107233440Y-53600833D01*
X107200106Y-53567500D01*
X107133440Y-53534166D01*
X107033440Y-53534166D01*
X106966773Y-53567500D01*
X106933440Y-53600833D01*
X106900106Y-53667500D01*
X106900106Y-53934166D01*
X106566773Y-53234166D02*
X107266773Y-53234166D01*
X107266773Y-52767500D02*
X107266773Y-52634166D01*
X107233440Y-52567500D01*
X107166773Y-52500833D01*
X107033440Y-52467500D01*
X106800106Y-52467500D01*
X106666773Y-52500833D01*
X106600106Y-52567500D01*
X106566773Y-52634166D01*
X106566773Y-52767500D01*
X106600106Y-52834166D01*
X106666773Y-52900833D01*
X106800106Y-52934166D01*
X107033440Y-52934166D01*
X107166773Y-52900833D01*
X107233440Y-52834166D01*
X107266773Y-52767500D01*
X107266773Y-52034166D02*
X107266773Y-51967500D01*
X107233440Y-51900833D01*
X107200106Y-51867500D01*
X107133440Y-51834166D01*
X107000106Y-51800833D01*
X106833440Y-51800833D01*
X106700106Y-51834166D01*
X106633440Y-51867500D01*
X106600106Y-51900833D01*
X106566773Y-51967500D01*
X106566773Y-52034166D01*
X106600106Y-52100833D01*
X106633440Y-52134166D01*
X106700106Y-52167500D01*
X106833440Y-52200833D01*
X107000106Y-52200833D01*
X107133440Y-52167500D01*
X107200106Y-52134166D01*
X107233440Y-52100833D01*
X107266773Y-52034166D01*
X125163440Y-53953214D02*
X125211059Y-54048452D01*
X125211059Y-54191309D01*
X125163440Y-54334166D01*
X125068201Y-54429404D01*
X124972963Y-54477023D01*
X124782487Y-54524642D01*
X124639630Y-54524642D01*
X124449154Y-54477023D01*
X124353916Y-54429404D01*
X124258678Y-54334166D01*
X124211059Y-54191309D01*
X124211059Y-54096071D01*
X124258678Y-53953214D01*
X124306297Y-53905595D01*
X124639630Y-53905595D01*
X124639630Y-54096071D01*
X124211059Y-53477023D02*
X125211059Y-53477023D01*
X124211059Y-52905595D01*
X125211059Y-52905595D01*
X124211059Y-52429404D02*
X125211059Y-52429404D01*
X125211059Y-52191309D01*
X125163440Y-52048452D01*
X125068201Y-51953214D01*
X124972963Y-51905595D01*
X124782487Y-51857976D01*
X124639630Y-51857976D01*
X124449154Y-51905595D01*
X124353916Y-51953214D01*
X124258678Y-52048452D01*
X124211059Y-52191309D01*
X124211059Y-52429404D01*
X119933440Y-73799166D02*
X119966773Y-73865833D01*
X119966773Y-73965833D01*
X119933440Y-74065833D01*
X119866773Y-74132500D01*
X119800106Y-74165833D01*
X119666773Y-74199166D01*
X119566773Y-74199166D01*
X119433440Y-74165833D01*
X119366773Y-74132500D01*
X119300106Y-74065833D01*
X119266773Y-73965833D01*
X119266773Y-73899166D01*
X119300106Y-73799166D01*
X119333440Y-73765833D01*
X119566773Y-73765833D01*
X119566773Y-73899166D01*
X119266773Y-73465833D02*
X119966773Y-73465833D01*
X119966773Y-73199166D01*
X119933440Y-73132500D01*
X119900106Y-73099166D01*
X119833440Y-73065833D01*
X119733440Y-73065833D01*
X119666773Y-73099166D01*
X119633440Y-73132500D01*
X119600106Y-73199166D01*
X119600106Y-73465833D01*
X119266773Y-72765833D02*
X119966773Y-72765833D01*
X119966773Y-72299166D02*
X119966773Y-72165833D01*
X119933440Y-72099166D01*
X119866773Y-72032500D01*
X119733440Y-71999166D01*
X119500106Y-71999166D01*
X119366773Y-72032500D01*
X119300106Y-72099166D01*
X119266773Y-72165833D01*
X119266773Y-72299166D01*
X119300106Y-72365833D01*
X119366773Y-72432500D01*
X119500106Y-72465833D01*
X119733440Y-72465833D01*
X119866773Y-72432500D01*
X119933440Y-72365833D01*
X119966773Y-72299166D01*
X119900106Y-71732500D02*
X119933440Y-71699166D01*
X119966773Y-71632500D01*
X119966773Y-71465833D01*
X119933440Y-71399166D01*
X119900106Y-71365833D01*
X119833440Y-71332500D01*
X119766773Y-71332500D01*
X119666773Y-71365833D01*
X119266773Y-71765833D01*
X119266773Y-71332500D01*
X119966773Y-70699166D02*
X119966773Y-71032500D01*
X119633440Y-71065833D01*
X119666773Y-71032500D01*
X119700106Y-70965833D01*
X119700106Y-70799166D01*
X119666773Y-70732500D01*
X119633440Y-70699166D01*
X119566773Y-70665833D01*
X119400106Y-70665833D01*
X119333440Y-70699166D01*
X119300106Y-70732500D01*
X119266773Y-70799166D01*
X119266773Y-70965833D01*
X119300106Y-71032500D01*
X119333440Y-71065833D01*
X130093440Y-58467500D02*
X130126773Y-58534166D01*
X130126773Y-58634166D01*
X130093440Y-58734166D01*
X130026773Y-58800833D01*
X129960106Y-58834166D01*
X129826773Y-58867500D01*
X129726773Y-58867500D01*
X129593440Y-58834166D01*
X129526773Y-58800833D01*
X129460106Y-58734166D01*
X129426773Y-58634166D01*
X129426773Y-58567500D01*
X129460106Y-58467500D01*
X129493440Y-58434166D01*
X129726773Y-58434166D01*
X129726773Y-58567500D01*
X129426773Y-58134166D02*
X130126773Y-58134166D01*
X130126773Y-57867500D01*
X130093440Y-57800833D01*
X130060106Y-57767500D01*
X129993440Y-57734166D01*
X129893440Y-57734166D01*
X129826773Y-57767500D01*
X129793440Y-57800833D01*
X129760106Y-57867500D01*
X129760106Y-58134166D01*
X129426773Y-57434166D02*
X130126773Y-57434166D01*
X130126773Y-56967500D02*
X130126773Y-56834166D01*
X130093440Y-56767500D01*
X130026773Y-56700833D01*
X129893440Y-56667500D01*
X129660106Y-56667500D01*
X129526773Y-56700833D01*
X129460106Y-56767500D01*
X129426773Y-56834166D01*
X129426773Y-56967500D01*
X129460106Y-57034166D01*
X129526773Y-57100833D01*
X129660106Y-57134166D01*
X129893440Y-57134166D01*
X130026773Y-57100833D01*
X130093440Y-57034166D01*
X130126773Y-56967500D01*
X130126773Y-56434166D02*
X130126773Y-56000833D01*
X129860106Y-56234166D01*
X129860106Y-56134166D01*
X129826773Y-56067500D01*
X129793440Y-56034166D01*
X129726773Y-56000833D01*
X129560106Y-56000833D01*
X129493440Y-56034166D01*
X129460106Y-56067500D01*
X129426773Y-56134166D01*
X129426773Y-56334166D01*
X129460106Y-56400833D01*
X129493440Y-56434166D01*
X130160106Y-55200833D02*
X129260106Y-55800833D01*
X130126773Y-54967500D02*
X129560106Y-54967500D01*
X129493440Y-54934166D01*
X129460106Y-54900833D01*
X129426773Y-54834166D01*
X129426773Y-54700833D01*
X129460106Y-54634166D01*
X129493440Y-54600833D01*
X129560106Y-54567500D01*
X130126773Y-54567500D01*
X130126773Y-54100833D02*
X130126773Y-54034166D01*
X130093440Y-53967500D01*
X130060106Y-53934166D01*
X129993440Y-53900833D01*
X129860106Y-53867500D01*
X129693440Y-53867500D01*
X129560106Y-53900833D01*
X129493440Y-53934166D01*
X129460106Y-53967500D01*
X129426773Y-54034166D01*
X129426773Y-54100833D01*
X129460106Y-54167500D01*
X129493440Y-54200833D01*
X129560106Y-54234166D01*
X129693440Y-54267500D01*
X129860106Y-54267500D01*
X129993440Y-54234166D01*
X130060106Y-54200833D01*
X130093440Y-54167500D01*
X130126773Y-54100833D01*
X129426773Y-53167500D02*
X129760106Y-53400833D01*
X129426773Y-53567500D02*
X130126773Y-53567500D01*
X130126773Y-53300833D01*
X130093440Y-53234166D01*
X130060106Y-53200833D01*
X129993440Y-53167500D01*
X129893440Y-53167500D01*
X129826773Y-53200833D01*
X129793440Y-53234166D01*
X129760106Y-53300833D01*
X129760106Y-53567500D01*
X130126773Y-52934166D02*
X129426773Y-52467500D01*
X130126773Y-52467500D02*
X129426773Y-52934166D01*
X129426773Y-52200833D02*
X130126773Y-52200833D01*
X130126773Y-52034166D01*
X130093440Y-51934166D01*
X130026773Y-51867500D01*
X129960106Y-51834166D01*
X129826773Y-51800833D01*
X129726773Y-51800833D01*
X129593440Y-51834166D01*
X129526773Y-51867500D01*
X129460106Y-51934166D01*
X129426773Y-52034166D01*
X129426773Y-52200833D01*
X122473440Y-54934166D02*
X122506773Y-55000833D01*
X122506773Y-55100833D01*
X122473440Y-55200833D01*
X122406773Y-55267500D01*
X122340106Y-55300833D01*
X122206773Y-55334166D01*
X122106773Y-55334166D01*
X121973440Y-55300833D01*
X121906773Y-55267500D01*
X121840106Y-55200833D01*
X121806773Y-55100833D01*
X121806773Y-55034166D01*
X121840106Y-54934166D01*
X121873440Y-54900833D01*
X122106773Y-54900833D01*
X122106773Y-55034166D01*
X121806773Y-54600833D02*
X122506773Y-54600833D01*
X122506773Y-54334166D01*
X122473440Y-54267500D01*
X122440106Y-54234166D01*
X122373440Y-54200833D01*
X122273440Y-54200833D01*
X122206773Y-54234166D01*
X122173440Y-54267500D01*
X122140106Y-54334166D01*
X122140106Y-54600833D01*
X121806773Y-53900833D02*
X122506773Y-53900833D01*
X122506773Y-53434166D02*
X122506773Y-53300833D01*
X122473440Y-53234166D01*
X122406773Y-53167500D01*
X122273440Y-53134166D01*
X122040106Y-53134166D01*
X121906773Y-53167500D01*
X121840106Y-53234166D01*
X121806773Y-53300833D01*
X121806773Y-53434166D01*
X121840106Y-53500833D01*
X121906773Y-53567500D01*
X122040106Y-53600833D01*
X122273440Y-53600833D01*
X122406773Y-53567500D01*
X122473440Y-53500833D01*
X122506773Y-53434166D01*
X121806773Y-52467500D02*
X121806773Y-52867500D01*
X121806773Y-52667500D02*
X122506773Y-52667500D01*
X122406773Y-52734166D01*
X122340106Y-52800833D01*
X122306773Y-52867500D01*
X121806773Y-52134166D02*
X121806773Y-52000833D01*
X121840106Y-51934166D01*
X121873440Y-51900833D01*
X121973440Y-51834166D01*
X122106773Y-51800833D01*
X122373440Y-51800833D01*
X122440106Y-51834166D01*
X122473440Y-51867500D01*
X122506773Y-51934166D01*
X122506773Y-52067500D01*
X122473440Y-52134166D01*
X122440106Y-52167500D01*
X122373440Y-52200833D01*
X122206773Y-52200833D01*
X122140106Y-52167500D01*
X122106773Y-52134166D01*
X122073440Y-52067500D01*
X122073440Y-51934166D01*
X122106773Y-51867500D01*
X122140106Y-51834166D01*
X122206773Y-51800833D01*
X109773440Y-73799166D02*
X109806773Y-73865833D01*
X109806773Y-73965833D01*
X109773440Y-74065833D01*
X109706773Y-74132500D01*
X109640106Y-74165833D01*
X109506773Y-74199166D01*
X109406773Y-74199166D01*
X109273440Y-74165833D01*
X109206773Y-74132500D01*
X109140106Y-74065833D01*
X109106773Y-73965833D01*
X109106773Y-73899166D01*
X109140106Y-73799166D01*
X109173440Y-73765833D01*
X109406773Y-73765833D01*
X109406773Y-73899166D01*
X109106773Y-73465833D02*
X109806773Y-73465833D01*
X109806773Y-73199166D01*
X109773440Y-73132500D01*
X109740106Y-73099166D01*
X109673440Y-73065833D01*
X109573440Y-73065833D01*
X109506773Y-73099166D01*
X109473440Y-73132500D01*
X109440106Y-73199166D01*
X109440106Y-73465833D01*
X109106773Y-72765833D02*
X109806773Y-72765833D01*
X109806773Y-72299166D02*
X109806773Y-72165833D01*
X109773440Y-72099166D01*
X109706773Y-72032500D01*
X109573440Y-71999166D01*
X109340106Y-71999166D01*
X109206773Y-72032500D01*
X109140106Y-72099166D01*
X109106773Y-72165833D01*
X109106773Y-72299166D01*
X109140106Y-72365833D01*
X109206773Y-72432500D01*
X109340106Y-72465833D01*
X109573440Y-72465833D01*
X109706773Y-72432500D01*
X109773440Y-72365833D01*
X109806773Y-72299166D01*
X109106773Y-71332500D02*
X109106773Y-71732500D01*
X109106773Y-71532500D02*
X109806773Y-71532500D01*
X109706773Y-71599166D01*
X109640106Y-71665833D01*
X109606773Y-71732500D01*
X109740106Y-71065833D02*
X109773440Y-71032500D01*
X109806773Y-70965833D01*
X109806773Y-70799166D01*
X109773440Y-70732500D01*
X109740106Y-70699166D01*
X109673440Y-70665833D01*
X109606773Y-70665833D01*
X109506773Y-70699166D01*
X109106773Y-71099166D01*
X109106773Y-70665833D01*
X109840106Y-69865833D02*
X108940106Y-70465833D01*
X109106773Y-69632500D02*
X109806773Y-69632500D01*
X109306773Y-69399166D01*
X109806773Y-69165833D01*
X109106773Y-69165833D01*
X109806773Y-68932500D02*
X109806773Y-68532500D01*
X109106773Y-68732500D02*
X109806773Y-68732500D01*
X109106773Y-68299166D02*
X109806773Y-68299166D01*
X109806773Y-68132500D01*
X109773440Y-68032500D01*
X109706773Y-67965833D01*
X109640106Y-67932500D01*
X109506773Y-67899166D01*
X109406773Y-67899166D01*
X109273440Y-67932500D01*
X109206773Y-67965833D01*
X109140106Y-68032500D01*
X109106773Y-68132500D01*
X109106773Y-68299166D01*
X109106773Y-67599166D02*
X109806773Y-67599166D01*
X135206773Y-74265833D02*
X134506773Y-74032500D01*
X135206773Y-73799166D01*
X134506773Y-73565833D02*
X135206773Y-73565833D01*
X135206773Y-73299166D01*
X135173440Y-73232500D01*
X135140106Y-73199166D01*
X135073440Y-73165833D01*
X134973440Y-73165833D01*
X134906773Y-73199166D01*
X134873440Y-73232500D01*
X134840106Y-73299166D01*
X134840106Y-73565833D01*
X135240106Y-72365833D02*
X134340106Y-72965833D01*
X135173440Y-71765833D02*
X135206773Y-71832500D01*
X135206773Y-71932500D01*
X135173440Y-72032500D01*
X135106773Y-72099166D01*
X135040106Y-72132500D01*
X134906773Y-72165833D01*
X134806773Y-72165833D01*
X134673440Y-72132500D01*
X134606773Y-72099166D01*
X134540106Y-72032500D01*
X134506773Y-71932500D01*
X134506773Y-71865833D01*
X134540106Y-71765833D01*
X134573440Y-71732500D01*
X134806773Y-71732500D01*
X134806773Y-71865833D01*
X134506773Y-71432500D02*
X135206773Y-71432500D01*
X135206773Y-71165833D01*
X135173440Y-71099166D01*
X135140106Y-71065833D01*
X135073440Y-71032500D01*
X134973440Y-71032500D01*
X134906773Y-71065833D01*
X134873440Y-71099166D01*
X134840106Y-71165833D01*
X134840106Y-71432500D01*
X134506773Y-70732500D02*
X135206773Y-70732500D01*
X135206773Y-70265833D02*
X135206773Y-70132500D01*
X135173440Y-70065833D01*
X135106773Y-69999166D01*
X134973440Y-69965833D01*
X134740106Y-69965833D01*
X134606773Y-69999166D01*
X134540106Y-70065833D01*
X134506773Y-70132500D01*
X134506773Y-70265833D01*
X134540106Y-70332500D01*
X134606773Y-70399166D01*
X134740106Y-70432500D01*
X134973440Y-70432500D01*
X135106773Y-70399166D01*
X135173440Y-70332500D01*
X135206773Y-70265833D01*
X135206773Y-69732500D02*
X135206773Y-69299166D01*
X134940106Y-69532500D01*
X134940106Y-69432500D01*
X134906773Y-69365833D01*
X134873440Y-69332500D01*
X134806773Y-69299166D01*
X134640106Y-69299166D01*
X134573440Y-69332500D01*
X134540106Y-69365833D01*
X134506773Y-69432500D01*
X134506773Y-69632500D01*
X134540106Y-69699166D01*
X134573440Y-69732500D01*
X135206773Y-68699166D02*
X135206773Y-68832500D01*
X135173440Y-68899166D01*
X135140106Y-68932500D01*
X135040106Y-68999166D01*
X134906773Y-69032500D01*
X134640106Y-69032500D01*
X134573440Y-68999166D01*
X134540106Y-68965833D01*
X134506773Y-68899166D01*
X134506773Y-68765833D01*
X134540106Y-68699166D01*
X134573440Y-68665833D01*
X134640106Y-68632500D01*
X134806773Y-68632500D01*
X134873440Y-68665833D01*
X134906773Y-68699166D01*
X134940106Y-68765833D01*
X134940106Y-68899166D01*
X134906773Y-68965833D01*
X134873440Y-68999166D01*
X134806773Y-69032500D01*
X98946773Y-74165833D02*
X99646773Y-74165833D01*
X99646773Y-73999166D01*
X99613440Y-73899166D01*
X99546773Y-73832500D01*
X99480106Y-73799166D01*
X99346773Y-73765833D01*
X99246773Y-73765833D01*
X99113440Y-73799166D01*
X99046773Y-73832500D01*
X98980106Y-73899166D01*
X98946773Y-73999166D01*
X98946773Y-74165833D01*
X99646773Y-73532500D02*
X99646773Y-73099166D01*
X99380106Y-73332500D01*
X99380106Y-73232500D01*
X99346773Y-73165833D01*
X99313440Y-73132500D01*
X99246773Y-73099166D01*
X99080106Y-73099166D01*
X99013440Y-73132500D01*
X98980106Y-73165833D01*
X98946773Y-73232500D01*
X98946773Y-73432500D01*
X98980106Y-73499166D01*
X99013440Y-73532500D01*
X98946773Y-52867500D02*
X99646773Y-52867500D01*
X99646773Y-52700833D01*
X99613440Y-52600833D01*
X99546773Y-52534166D01*
X99480106Y-52500833D01*
X99346773Y-52467500D01*
X99246773Y-52467500D01*
X99113440Y-52500833D01*
X99046773Y-52534166D01*
X98980106Y-52600833D01*
X98946773Y-52700833D01*
X98946773Y-52867500D01*
X98946773Y-51800833D02*
X98946773Y-52200833D01*
X98946773Y-52000833D02*
X99646773Y-52000833D01*
X99546773Y-52067500D01*
X99480106Y-52134166D01*
X99446773Y-52200833D01*
X140451059Y-74189642D02*
X140451059Y-73570595D01*
X140070106Y-73903928D01*
X140070106Y-73761071D01*
X140022487Y-73665833D01*
X139974868Y-73618214D01*
X139879630Y-73570595D01*
X139641535Y-73570595D01*
X139546297Y-73618214D01*
X139498678Y-73665833D01*
X139451059Y-73761071D01*
X139451059Y-74046785D01*
X139498678Y-74142023D01*
X139546297Y-74189642D01*
X140451059Y-73284880D02*
X139451059Y-72951547D01*
X140451059Y-72618214D01*
X140451059Y-72380119D02*
X140451059Y-71761071D01*
X140070106Y-72094404D01*
X140070106Y-71951547D01*
X140022487Y-71856309D01*
X139974868Y-71808690D01*
X139879630Y-71761071D01*
X139641535Y-71761071D01*
X139546297Y-71808690D01*
X139498678Y-71856309D01*
X139451059Y-71951547D01*
X139451059Y-72237261D01*
X139498678Y-72332500D01*
X139546297Y-72380119D01*
X94479779Y-73621894D02*
X94479779Y-74098084D01*
X94003588Y-74145703D01*
X94051207Y-74098084D01*
X94098826Y-74002846D01*
X94098826Y-73764751D01*
X94051207Y-73669513D01*
X94003588Y-73621894D01*
X93908350Y-73574275D01*
X93670255Y-73574275D01*
X93575017Y-73621894D01*
X93527398Y-73669513D01*
X93479779Y-73764751D01*
X93479779Y-74002846D01*
X93527398Y-74098084D01*
X93575017Y-74145703D01*
X94479779Y-73288560D02*
X93479779Y-72955227D01*
X94479779Y-72621894D01*
X101486773Y-74165833D02*
X102186773Y-74165833D01*
X102186773Y-73999166D01*
X102153440Y-73899166D01*
X102086773Y-73832500D01*
X102020106Y-73799166D01*
X101886773Y-73765833D01*
X101786773Y-73765833D01*
X101653440Y-73799166D01*
X101586773Y-73832500D01*
X101520106Y-73899166D01*
X101486773Y-73999166D01*
X101486773Y-74165833D01*
X102120106Y-73499166D02*
X102153440Y-73465833D01*
X102186773Y-73399166D01*
X102186773Y-73232500D01*
X102153440Y-73165833D01*
X102120106Y-73132500D01*
X102053440Y-73099166D01*
X101986773Y-73099166D01*
X101886773Y-73132500D01*
X101486773Y-73532500D01*
X101486773Y-73099166D01*
X130093440Y-73799166D02*
X130126773Y-73865833D01*
X130126773Y-73965833D01*
X130093440Y-74065833D01*
X130026773Y-74132500D01*
X129960106Y-74165833D01*
X129826773Y-74199166D01*
X129726773Y-74199166D01*
X129593440Y-74165833D01*
X129526773Y-74132500D01*
X129460106Y-74065833D01*
X129426773Y-73965833D01*
X129426773Y-73899166D01*
X129460106Y-73799166D01*
X129493440Y-73765833D01*
X129726773Y-73765833D01*
X129726773Y-73899166D01*
X129426773Y-73465833D02*
X130126773Y-73465833D01*
X130126773Y-73199166D01*
X130093440Y-73132500D01*
X130060106Y-73099166D01*
X129993440Y-73065833D01*
X129893440Y-73065833D01*
X129826773Y-73099166D01*
X129793440Y-73132500D01*
X129760106Y-73199166D01*
X129760106Y-73465833D01*
X129426773Y-72765833D02*
X130126773Y-72765833D01*
X130126773Y-72299166D02*
X130126773Y-72165833D01*
X130093440Y-72099166D01*
X130026773Y-72032500D01*
X129893440Y-71999166D01*
X129660106Y-71999166D01*
X129526773Y-72032500D01*
X129460106Y-72099166D01*
X129426773Y-72165833D01*
X129426773Y-72299166D01*
X129460106Y-72365833D01*
X129526773Y-72432500D01*
X129660106Y-72465833D01*
X129893440Y-72465833D01*
X130026773Y-72432500D01*
X130093440Y-72365833D01*
X130126773Y-72299166D01*
X130126773Y-71765833D02*
X130126773Y-71332500D01*
X129860106Y-71565833D01*
X129860106Y-71465833D01*
X129826773Y-71399166D01*
X129793440Y-71365833D01*
X129726773Y-71332500D01*
X129560106Y-71332500D01*
X129493440Y-71365833D01*
X129460106Y-71399166D01*
X129426773Y-71465833D01*
X129426773Y-71665833D01*
X129460106Y-71732500D01*
X129493440Y-71765833D01*
X129893440Y-70732500D02*
X129426773Y-70732500D01*
X130160106Y-70899166D02*
X129660106Y-71065833D01*
X129660106Y-70632500D01*
X104693440Y-54267500D02*
X104726773Y-54334166D01*
X104726773Y-54434166D01*
X104693440Y-54534166D01*
X104626773Y-54600833D01*
X104560106Y-54634166D01*
X104426773Y-54667500D01*
X104326773Y-54667500D01*
X104193440Y-54634166D01*
X104126773Y-54600833D01*
X104060106Y-54534166D01*
X104026773Y-54434166D01*
X104026773Y-54367500D01*
X104060106Y-54267500D01*
X104093440Y-54234166D01*
X104326773Y-54234166D01*
X104326773Y-54367500D01*
X104026773Y-53934166D02*
X104726773Y-53934166D01*
X104726773Y-53667500D01*
X104693440Y-53600833D01*
X104660106Y-53567500D01*
X104593440Y-53534166D01*
X104493440Y-53534166D01*
X104426773Y-53567500D01*
X104393440Y-53600833D01*
X104360106Y-53667500D01*
X104360106Y-53934166D01*
X104026773Y-53234166D02*
X104726773Y-53234166D01*
X104726773Y-52767500D02*
X104726773Y-52634166D01*
X104693440Y-52567500D01*
X104626773Y-52500833D01*
X104493440Y-52467500D01*
X104260106Y-52467500D01*
X104126773Y-52500833D01*
X104060106Y-52567500D01*
X104026773Y-52634166D01*
X104026773Y-52767500D01*
X104060106Y-52834166D01*
X104126773Y-52900833D01*
X104260106Y-52934166D01*
X104493440Y-52934166D01*
X104626773Y-52900833D01*
X104693440Y-52834166D01*
X104726773Y-52767500D01*
X104660106Y-52200833D02*
X104693440Y-52167500D01*
X104726773Y-52100833D01*
X104726773Y-51934166D01*
X104693440Y-51867500D01*
X104660106Y-51834166D01*
X104593440Y-51800833D01*
X104526773Y-51800833D01*
X104426773Y-51834166D01*
X104026773Y-52234166D01*
X104026773Y-51800833D01*
X107383440Y-73570595D02*
X107431059Y-73665833D01*
X107431059Y-73808690D01*
X107383440Y-73951547D01*
X107288201Y-74046785D01*
X107192963Y-74094404D01*
X107002487Y-74142023D01*
X106859630Y-74142023D01*
X106669154Y-74094404D01*
X106573916Y-74046785D01*
X106478678Y-73951547D01*
X106431059Y-73808690D01*
X106431059Y-73713452D01*
X106478678Y-73570595D01*
X106526297Y-73522976D01*
X106859630Y-73522976D01*
X106859630Y-73713452D01*
X106431059Y-73094404D02*
X107431059Y-73094404D01*
X106431059Y-72522976D01*
X107431059Y-72522976D01*
X106431059Y-72046785D02*
X107431059Y-72046785D01*
X107431059Y-71808690D01*
X107383440Y-71665833D01*
X107288201Y-71570595D01*
X107192963Y-71522976D01*
X107002487Y-71475357D01*
X106859630Y-71475357D01*
X106669154Y-71522976D01*
X106573916Y-71570595D01*
X106478678Y-71665833D01*
X106431059Y-71808690D01*
X106431059Y-72046785D01*
X96473440Y-73765833D02*
X96440106Y-73799166D01*
X96406773Y-73899166D01*
X96406773Y-73965833D01*
X96440106Y-74065833D01*
X96506773Y-74132500D01*
X96573440Y-74165833D01*
X96706773Y-74199166D01*
X96806773Y-74199166D01*
X96940106Y-74165833D01*
X97006773Y-74132500D01*
X97073440Y-74065833D01*
X97106773Y-73965833D01*
X97106773Y-73899166D01*
X97073440Y-73799166D01*
X97040106Y-73765833D01*
X96406773Y-73465833D02*
X97106773Y-73465833D01*
X96606773Y-73232500D01*
X97106773Y-72999166D01*
X96406773Y-72999166D01*
X96406773Y-72665833D02*
X97106773Y-72665833D01*
X97106773Y-72499166D01*
X97073440Y-72399166D01*
X97006773Y-72332500D01*
X96940106Y-72299166D01*
X96806773Y-72265833D01*
X96706773Y-72265833D01*
X96573440Y-72299166D01*
X96506773Y-72332500D01*
X96440106Y-72399166D01*
X96406773Y-72499166D01*
X96406773Y-72665833D01*
X112313440Y-73799166D02*
X112346773Y-73865833D01*
X112346773Y-73965833D01*
X112313440Y-74065833D01*
X112246773Y-74132500D01*
X112180106Y-74165833D01*
X112046773Y-74199166D01*
X111946773Y-74199166D01*
X111813440Y-74165833D01*
X111746773Y-74132500D01*
X111680106Y-74065833D01*
X111646773Y-73965833D01*
X111646773Y-73899166D01*
X111680106Y-73799166D01*
X111713440Y-73765833D01*
X111946773Y-73765833D01*
X111946773Y-73899166D01*
X111646773Y-73465833D02*
X112346773Y-73465833D01*
X112346773Y-73199166D01*
X112313440Y-73132500D01*
X112280106Y-73099166D01*
X112213440Y-73065833D01*
X112113440Y-73065833D01*
X112046773Y-73099166D01*
X112013440Y-73132500D01*
X111980106Y-73199166D01*
X111980106Y-73465833D01*
X111646773Y-72765833D02*
X112346773Y-72765833D01*
X112346773Y-72299166D02*
X112346773Y-72165833D01*
X112313440Y-72099166D01*
X112246773Y-72032500D01*
X112113440Y-71999166D01*
X111880106Y-71999166D01*
X111746773Y-72032500D01*
X111680106Y-72099166D01*
X111646773Y-72165833D01*
X111646773Y-72299166D01*
X111680106Y-72365833D01*
X111746773Y-72432500D01*
X111880106Y-72465833D01*
X112113440Y-72465833D01*
X112246773Y-72432500D01*
X112313440Y-72365833D01*
X112346773Y-72299166D01*
X111646773Y-71332500D02*
X111646773Y-71732500D01*
X111646773Y-71532500D02*
X112346773Y-71532500D01*
X112246773Y-71599166D01*
X112180106Y-71665833D01*
X112146773Y-71732500D01*
X112113440Y-70732500D02*
X111646773Y-70732500D01*
X112380106Y-70899166D02*
X111880106Y-71065833D01*
X111880106Y-70632500D01*
X112380106Y-69865833D02*
X111480106Y-70465833D01*
X111646773Y-69632500D02*
X112346773Y-69632500D01*
X111846773Y-69399166D01*
X112346773Y-69165833D01*
X111646773Y-69165833D01*
X112346773Y-68932500D02*
X112346773Y-68532500D01*
X111646773Y-68732500D02*
X112346773Y-68732500D01*
X111646773Y-68299166D02*
X112346773Y-68299166D01*
X111846773Y-68065833D01*
X112346773Y-67832500D01*
X111646773Y-67832500D01*
X111680106Y-67532500D02*
X111646773Y-67432500D01*
X111646773Y-67265833D01*
X111680106Y-67199166D01*
X111713440Y-67165833D01*
X111780106Y-67132500D01*
X111846773Y-67132500D01*
X111913440Y-67165833D01*
X111946773Y-67199166D01*
X111980106Y-67265833D01*
X112013440Y-67399166D01*
X112046773Y-67465833D01*
X112080106Y-67499166D01*
X112146773Y-67532500D01*
X112213440Y-67532500D01*
X112280106Y-67499166D01*
X112313440Y-67465833D01*
X112346773Y-67399166D01*
X112346773Y-67232500D01*
X112313440Y-67132500D01*
X125013440Y-73799166D02*
X125046773Y-73865833D01*
X125046773Y-73965833D01*
X125013440Y-74065833D01*
X124946773Y-74132500D01*
X124880106Y-74165833D01*
X124746773Y-74199166D01*
X124646773Y-74199166D01*
X124513440Y-74165833D01*
X124446773Y-74132500D01*
X124380106Y-74065833D01*
X124346773Y-73965833D01*
X124346773Y-73899166D01*
X124380106Y-73799166D01*
X124413440Y-73765833D01*
X124646773Y-73765833D01*
X124646773Y-73899166D01*
X124346773Y-73465833D02*
X125046773Y-73465833D01*
X125046773Y-73199166D01*
X125013440Y-73132500D01*
X124980106Y-73099166D01*
X124913440Y-73065833D01*
X124813440Y-73065833D01*
X124746773Y-73099166D01*
X124713440Y-73132500D01*
X124680106Y-73199166D01*
X124680106Y-73465833D01*
X124346773Y-72765833D02*
X125046773Y-72765833D01*
X125046773Y-72299166D02*
X125046773Y-72165833D01*
X125013440Y-72099166D01*
X124946773Y-72032500D01*
X124813440Y-71999166D01*
X124580106Y-71999166D01*
X124446773Y-72032500D01*
X124380106Y-72099166D01*
X124346773Y-72165833D01*
X124346773Y-72299166D01*
X124380106Y-72365833D01*
X124446773Y-72432500D01*
X124580106Y-72465833D01*
X124813440Y-72465833D01*
X124946773Y-72432500D01*
X125013440Y-72365833D01*
X125046773Y-72299166D01*
X125046773Y-71765833D02*
X125046773Y-71332500D01*
X124780106Y-71565833D01*
X124780106Y-71465833D01*
X124746773Y-71399166D01*
X124713440Y-71365833D01*
X124646773Y-71332500D01*
X124480106Y-71332500D01*
X124413440Y-71365833D01*
X124380106Y-71399166D01*
X124346773Y-71465833D01*
X124346773Y-71665833D01*
X124380106Y-71732500D01*
X124413440Y-71765833D01*
X124980106Y-71065833D02*
X125013440Y-71032500D01*
X125046773Y-70965833D01*
X125046773Y-70799166D01*
X125013440Y-70732500D01*
X124980106Y-70699166D01*
X124913440Y-70665833D01*
X124846773Y-70665833D01*
X124746773Y-70699166D01*
X124346773Y-71099166D01*
X124346773Y-70665833D01*
X96406773Y-52867500D02*
X97106773Y-52867500D01*
X97106773Y-52700833D01*
X97073440Y-52600833D01*
X97006773Y-52534166D01*
X96940106Y-52500833D01*
X96806773Y-52467500D01*
X96706773Y-52467500D01*
X96573440Y-52500833D01*
X96506773Y-52534166D01*
X96440106Y-52600833D01*
X96406773Y-52700833D01*
X96406773Y-52867500D01*
X97106773Y-52034166D02*
X97106773Y-51967500D01*
X97073440Y-51900833D01*
X97040106Y-51867500D01*
X96973440Y-51834166D01*
X96840106Y-51800833D01*
X96673440Y-51800833D01*
X96540106Y-51834166D01*
X96473440Y-51867500D01*
X96440106Y-51900833D01*
X96406773Y-51967500D01*
X96406773Y-52034166D01*
X96440106Y-52100833D01*
X96473440Y-52134166D01*
X96540106Y-52167500D01*
X96673440Y-52200833D01*
X96840106Y-52200833D01*
X96973440Y-52167500D01*
X97040106Y-52134166D01*
X97073440Y-52100833D01*
X97106773Y-52034166D01*
X127553440Y-73799166D02*
X127586773Y-73865833D01*
X127586773Y-73965833D01*
X127553440Y-74065833D01*
X127486773Y-74132500D01*
X127420106Y-74165833D01*
X127286773Y-74199166D01*
X127186773Y-74199166D01*
X127053440Y-74165833D01*
X126986773Y-74132500D01*
X126920106Y-74065833D01*
X126886773Y-73965833D01*
X126886773Y-73899166D01*
X126920106Y-73799166D01*
X126953440Y-73765833D01*
X127186773Y-73765833D01*
X127186773Y-73899166D01*
X126886773Y-73465833D02*
X127586773Y-73465833D01*
X127586773Y-73199166D01*
X127553440Y-73132500D01*
X127520106Y-73099166D01*
X127453440Y-73065833D01*
X127353440Y-73065833D01*
X127286773Y-73099166D01*
X127253440Y-73132500D01*
X127220106Y-73199166D01*
X127220106Y-73465833D01*
X126886773Y-72765833D02*
X127586773Y-72765833D01*
X127586773Y-72299166D02*
X127586773Y-72165833D01*
X127553440Y-72099166D01*
X127486773Y-72032500D01*
X127353440Y-71999166D01*
X127120106Y-71999166D01*
X126986773Y-72032500D01*
X126920106Y-72099166D01*
X126886773Y-72165833D01*
X126886773Y-72299166D01*
X126920106Y-72365833D01*
X126986773Y-72432500D01*
X127120106Y-72465833D01*
X127353440Y-72465833D01*
X127486773Y-72432500D01*
X127553440Y-72365833D01*
X127586773Y-72299166D01*
X127586773Y-71765833D02*
X127586773Y-71332500D01*
X127320106Y-71565833D01*
X127320106Y-71465833D01*
X127286773Y-71399166D01*
X127253440Y-71365833D01*
X127186773Y-71332500D01*
X127020106Y-71332500D01*
X126953440Y-71365833D01*
X126920106Y-71399166D01*
X126886773Y-71465833D01*
X126886773Y-71665833D01*
X126920106Y-71732500D01*
X126953440Y-71765833D01*
X127586773Y-70699166D02*
X127586773Y-71032500D01*
X127253440Y-71065833D01*
X127286773Y-71032500D01*
X127320106Y-70965833D01*
X127320106Y-70799166D01*
X127286773Y-70732500D01*
X127253440Y-70699166D01*
X127186773Y-70665833D01*
X127020106Y-70665833D01*
X126953440Y-70699166D01*
X126920106Y-70732500D01*
X126886773Y-70799166D01*
X126886773Y-70965833D01*
X126920106Y-71032500D01*
X126953440Y-71065833D01*
X114853440Y-73799166D02*
X114886773Y-73865833D01*
X114886773Y-73965833D01*
X114853440Y-74065833D01*
X114786773Y-74132500D01*
X114720106Y-74165833D01*
X114586773Y-74199166D01*
X114486773Y-74199166D01*
X114353440Y-74165833D01*
X114286773Y-74132500D01*
X114220106Y-74065833D01*
X114186773Y-73965833D01*
X114186773Y-73899166D01*
X114220106Y-73799166D01*
X114253440Y-73765833D01*
X114486773Y-73765833D01*
X114486773Y-73899166D01*
X114186773Y-73465833D02*
X114886773Y-73465833D01*
X114886773Y-73199166D01*
X114853440Y-73132500D01*
X114820106Y-73099166D01*
X114753440Y-73065833D01*
X114653440Y-73065833D01*
X114586773Y-73099166D01*
X114553440Y-73132500D01*
X114520106Y-73199166D01*
X114520106Y-73465833D01*
X114186773Y-72765833D02*
X114886773Y-72765833D01*
X114886773Y-72299166D02*
X114886773Y-72165833D01*
X114853440Y-72099166D01*
X114786773Y-72032500D01*
X114653440Y-71999166D01*
X114420106Y-71999166D01*
X114286773Y-72032500D01*
X114220106Y-72099166D01*
X114186773Y-72165833D01*
X114186773Y-72299166D01*
X114220106Y-72365833D01*
X114286773Y-72432500D01*
X114420106Y-72465833D01*
X114653440Y-72465833D01*
X114786773Y-72432500D01*
X114853440Y-72365833D01*
X114886773Y-72299166D01*
X114820106Y-71732500D02*
X114853440Y-71699166D01*
X114886773Y-71632500D01*
X114886773Y-71465833D01*
X114853440Y-71399166D01*
X114820106Y-71365833D01*
X114753440Y-71332500D01*
X114686773Y-71332500D01*
X114586773Y-71365833D01*
X114186773Y-71765833D01*
X114186773Y-71332500D01*
X114886773Y-71099166D02*
X114886773Y-70632500D01*
X114186773Y-70932500D01*
X132666773Y-74265833D02*
X131966773Y-74032500D01*
X132666773Y-73799166D01*
X131966773Y-73565833D02*
X132666773Y-73565833D01*
X131966773Y-73165833D01*
X132666773Y-73165833D01*
X132700106Y-72332500D02*
X131800106Y-72932500D01*
X132633440Y-71732500D02*
X132666773Y-71799166D01*
X132666773Y-71899166D01*
X132633440Y-71999166D01*
X132566773Y-72065833D01*
X132500106Y-72099166D01*
X132366773Y-72132500D01*
X132266773Y-72132500D01*
X132133440Y-72099166D01*
X132066773Y-72065833D01*
X132000106Y-71999166D01*
X131966773Y-71899166D01*
X131966773Y-71832500D01*
X132000106Y-71732500D01*
X132033440Y-71699166D01*
X132266773Y-71699166D01*
X132266773Y-71832500D01*
X131966773Y-71399166D02*
X132666773Y-71399166D01*
X132666773Y-71132500D01*
X132633440Y-71065833D01*
X132600106Y-71032500D01*
X132533440Y-70999166D01*
X132433440Y-70999166D01*
X132366773Y-71032500D01*
X132333440Y-71065833D01*
X132300106Y-71132500D01*
X132300106Y-71399166D01*
X131966773Y-70699166D02*
X132666773Y-70699166D01*
X132666773Y-70232500D02*
X132666773Y-70099166D01*
X132633440Y-70032500D01*
X132566773Y-69965833D01*
X132433440Y-69932500D01*
X132200106Y-69932500D01*
X132066773Y-69965833D01*
X132000106Y-70032500D01*
X131966773Y-70099166D01*
X131966773Y-70232500D01*
X132000106Y-70299166D01*
X132066773Y-70365833D01*
X132200106Y-70399166D01*
X132433440Y-70399166D01*
X132566773Y-70365833D01*
X132633440Y-70299166D01*
X132666773Y-70232500D01*
X132666773Y-69699166D02*
X132666773Y-69265833D01*
X132400106Y-69499166D01*
X132400106Y-69399166D01*
X132366773Y-69332500D01*
X132333440Y-69299166D01*
X132266773Y-69265833D01*
X132100106Y-69265833D01*
X132033440Y-69299166D01*
X132000106Y-69332500D01*
X131966773Y-69399166D01*
X131966773Y-69599166D01*
X132000106Y-69665833D01*
X132033440Y-69699166D01*
X131966773Y-68932500D02*
X131966773Y-68799166D01*
X132000106Y-68732500D01*
X132033440Y-68699166D01*
X132133440Y-68632500D01*
X132266773Y-68599166D01*
X132533440Y-68599166D01*
X132600106Y-68632500D01*
X132633440Y-68665833D01*
X132666773Y-68732500D01*
X132666773Y-68865833D01*
X132633440Y-68932500D01*
X132600106Y-68965833D01*
X132533440Y-68999166D01*
X132366773Y-68999166D01*
X132300106Y-68965833D01*
X132266773Y-68932500D01*
X132233440Y-68865833D01*
X132233440Y-68732500D01*
X132266773Y-68665833D01*
X132300106Y-68632500D01*
X132366773Y-68599166D01*
X114853440Y-54934166D02*
X114886773Y-55000833D01*
X114886773Y-55100833D01*
X114853440Y-55200833D01*
X114786773Y-55267500D01*
X114720106Y-55300833D01*
X114586773Y-55334166D01*
X114486773Y-55334166D01*
X114353440Y-55300833D01*
X114286773Y-55267500D01*
X114220106Y-55200833D01*
X114186773Y-55100833D01*
X114186773Y-55034166D01*
X114220106Y-54934166D01*
X114253440Y-54900833D01*
X114486773Y-54900833D01*
X114486773Y-55034166D01*
X114186773Y-54600833D02*
X114886773Y-54600833D01*
X114886773Y-54334166D01*
X114853440Y-54267500D01*
X114820106Y-54234166D01*
X114753440Y-54200833D01*
X114653440Y-54200833D01*
X114586773Y-54234166D01*
X114553440Y-54267500D01*
X114520106Y-54334166D01*
X114520106Y-54600833D01*
X114186773Y-53900833D02*
X114886773Y-53900833D01*
X114886773Y-53434166D02*
X114886773Y-53300833D01*
X114853440Y-53234166D01*
X114786773Y-53167500D01*
X114653440Y-53134166D01*
X114420106Y-53134166D01*
X114286773Y-53167500D01*
X114220106Y-53234166D01*
X114186773Y-53300833D01*
X114186773Y-53434166D01*
X114220106Y-53500833D01*
X114286773Y-53567500D01*
X114420106Y-53600833D01*
X114653440Y-53600833D01*
X114786773Y-53567500D01*
X114853440Y-53500833D01*
X114886773Y-53434166D01*
X114186773Y-52467500D02*
X114186773Y-52867500D01*
X114186773Y-52667500D02*
X114886773Y-52667500D01*
X114786773Y-52734166D01*
X114720106Y-52800833D01*
X114686773Y-52867500D01*
X114886773Y-52234166D02*
X114886773Y-51767500D01*
X114186773Y-52067500D01*
X117393440Y-73799166D02*
X117426773Y-73865833D01*
X117426773Y-73965833D01*
X117393440Y-74065833D01*
X117326773Y-74132500D01*
X117260106Y-74165833D01*
X117126773Y-74199166D01*
X117026773Y-74199166D01*
X116893440Y-74165833D01*
X116826773Y-74132500D01*
X116760106Y-74065833D01*
X116726773Y-73965833D01*
X116726773Y-73899166D01*
X116760106Y-73799166D01*
X116793440Y-73765833D01*
X117026773Y-73765833D01*
X117026773Y-73899166D01*
X116726773Y-73465833D02*
X117426773Y-73465833D01*
X117426773Y-73199166D01*
X117393440Y-73132500D01*
X117360106Y-73099166D01*
X117293440Y-73065833D01*
X117193440Y-73065833D01*
X117126773Y-73099166D01*
X117093440Y-73132500D01*
X117060106Y-73199166D01*
X117060106Y-73465833D01*
X116726773Y-72765833D02*
X117426773Y-72765833D01*
X117426773Y-72299166D02*
X117426773Y-72165833D01*
X117393440Y-72099166D01*
X117326773Y-72032500D01*
X117193440Y-71999166D01*
X116960106Y-71999166D01*
X116826773Y-72032500D01*
X116760106Y-72099166D01*
X116726773Y-72165833D01*
X116726773Y-72299166D01*
X116760106Y-72365833D01*
X116826773Y-72432500D01*
X116960106Y-72465833D01*
X117193440Y-72465833D01*
X117326773Y-72432500D01*
X117393440Y-72365833D01*
X117426773Y-72299166D01*
X117360106Y-71732500D02*
X117393440Y-71699166D01*
X117426773Y-71632500D01*
X117426773Y-71465833D01*
X117393440Y-71399166D01*
X117360106Y-71365833D01*
X117293440Y-71332500D01*
X117226773Y-71332500D01*
X117126773Y-71365833D01*
X116726773Y-71765833D01*
X116726773Y-71332500D01*
X117426773Y-70732500D02*
X117426773Y-70865833D01*
X117393440Y-70932500D01*
X117360106Y-70965833D01*
X117260106Y-71032500D01*
X117126773Y-71065833D01*
X116860106Y-71065833D01*
X116793440Y-71032500D01*
X116760106Y-70999166D01*
X116726773Y-70932500D01*
X116726773Y-70799166D01*
X116760106Y-70732500D01*
X116793440Y-70699166D01*
X116860106Y-70665833D01*
X117026773Y-70665833D01*
X117093440Y-70699166D01*
X117126773Y-70732500D01*
X117160106Y-70799166D01*
X117160106Y-70932500D01*
X117126773Y-70999166D01*
X117093440Y-71032500D01*
X117026773Y-71065833D01*
X122473440Y-73799166D02*
X122506773Y-73865833D01*
X122506773Y-73965833D01*
X122473440Y-74065833D01*
X122406773Y-74132500D01*
X122340106Y-74165833D01*
X122206773Y-74199166D01*
X122106773Y-74199166D01*
X121973440Y-74165833D01*
X121906773Y-74132500D01*
X121840106Y-74065833D01*
X121806773Y-73965833D01*
X121806773Y-73899166D01*
X121840106Y-73799166D01*
X121873440Y-73765833D01*
X122106773Y-73765833D01*
X122106773Y-73899166D01*
X121806773Y-73465833D02*
X122506773Y-73465833D01*
X122506773Y-73199166D01*
X122473440Y-73132500D01*
X122440106Y-73099166D01*
X122373440Y-73065833D01*
X122273440Y-73065833D01*
X122206773Y-73099166D01*
X122173440Y-73132500D01*
X122140106Y-73199166D01*
X122140106Y-73465833D01*
X121806773Y-72765833D02*
X122506773Y-72765833D01*
X122506773Y-72299166D02*
X122506773Y-72165833D01*
X122473440Y-72099166D01*
X122406773Y-72032500D01*
X122273440Y-71999166D01*
X122040106Y-71999166D01*
X121906773Y-72032500D01*
X121840106Y-72099166D01*
X121806773Y-72165833D01*
X121806773Y-72299166D01*
X121840106Y-72365833D01*
X121906773Y-72432500D01*
X122040106Y-72465833D01*
X122273440Y-72465833D01*
X122406773Y-72432500D01*
X122473440Y-72365833D01*
X122506773Y-72299166D01*
X122506773Y-71765833D02*
X122506773Y-71332500D01*
X122240106Y-71565833D01*
X122240106Y-71465833D01*
X122206773Y-71399166D01*
X122173440Y-71365833D01*
X122106773Y-71332500D01*
X121940106Y-71332500D01*
X121873440Y-71365833D01*
X121840106Y-71399166D01*
X121806773Y-71465833D01*
X121806773Y-71665833D01*
X121840106Y-71732500D01*
X121873440Y-71765833D01*
X122506773Y-71099166D02*
X122506773Y-70665833D01*
X122240106Y-70899166D01*
X122240106Y-70799166D01*
X122206773Y-70732500D01*
X122173440Y-70699166D01*
X122106773Y-70665833D01*
X121940106Y-70665833D01*
X121873440Y-70699166D01*
X121840106Y-70732500D01*
X121806773Y-70799166D01*
X121806773Y-70999166D01*
X121840106Y-71065833D01*
X121873440Y-71099166D01*
X112313440Y-54934166D02*
X112346773Y-55000833D01*
X112346773Y-55100833D01*
X112313440Y-55200833D01*
X112246773Y-55267500D01*
X112180106Y-55300833D01*
X112046773Y-55334166D01*
X111946773Y-55334166D01*
X111813440Y-55300833D01*
X111746773Y-55267500D01*
X111680106Y-55200833D01*
X111646773Y-55100833D01*
X111646773Y-55034166D01*
X111680106Y-54934166D01*
X111713440Y-54900833D01*
X111946773Y-54900833D01*
X111946773Y-55034166D01*
X111646773Y-54600833D02*
X112346773Y-54600833D01*
X112346773Y-54334166D01*
X112313440Y-54267500D01*
X112280106Y-54234166D01*
X112213440Y-54200833D01*
X112113440Y-54200833D01*
X112046773Y-54234166D01*
X112013440Y-54267500D01*
X111980106Y-54334166D01*
X111980106Y-54600833D01*
X111646773Y-53900833D02*
X112346773Y-53900833D01*
X112346773Y-53434166D02*
X112346773Y-53300833D01*
X112313440Y-53234166D01*
X112246773Y-53167500D01*
X112113440Y-53134166D01*
X111880106Y-53134166D01*
X111746773Y-53167500D01*
X111680106Y-53234166D01*
X111646773Y-53300833D01*
X111646773Y-53434166D01*
X111680106Y-53500833D01*
X111746773Y-53567500D01*
X111880106Y-53600833D01*
X112113440Y-53600833D01*
X112246773Y-53567500D01*
X112313440Y-53500833D01*
X112346773Y-53434166D01*
X111646773Y-52467500D02*
X111646773Y-52867500D01*
X111646773Y-52667500D02*
X112346773Y-52667500D01*
X112246773Y-52734166D01*
X112180106Y-52800833D01*
X112146773Y-52867500D01*
X112346773Y-51867500D02*
X112346773Y-52000833D01*
X112313440Y-52067500D01*
X112280106Y-52100833D01*
X112180106Y-52167500D01*
X112046773Y-52200833D01*
X111780106Y-52200833D01*
X111713440Y-52167500D01*
X111680106Y-52134166D01*
X111646773Y-52067500D01*
X111646773Y-51934166D01*
X111680106Y-51867500D01*
X111713440Y-51834166D01*
X111780106Y-51800833D01*
X111946773Y-51800833D01*
X112013440Y-51834166D01*
X112046773Y-51867500D01*
X112080106Y-51934166D01*
X112080106Y-52067500D01*
X112046773Y-52134166D01*
X112013440Y-52167500D01*
X111946773Y-52200833D01*
X93933440Y-53067500D02*
X93900106Y-53100833D01*
X93866773Y-53200833D01*
X93866773Y-53267500D01*
X93900106Y-53367500D01*
X93966773Y-53434166D01*
X94033440Y-53467500D01*
X94166773Y-53500833D01*
X94266773Y-53500833D01*
X94400106Y-53467500D01*
X94466773Y-53434166D01*
X94533440Y-53367500D01*
X94566773Y-53267500D01*
X94566773Y-53200833D01*
X94533440Y-53100833D01*
X94500106Y-53067500D01*
X93866773Y-52434166D02*
X93866773Y-52767500D01*
X94566773Y-52767500D01*
X93866773Y-52200833D02*
X94566773Y-52200833D01*
X93866773Y-51800833D02*
X94266773Y-52100833D01*
X94566773Y-51800833D02*
X94166773Y-52200833D01*
X109773440Y-54267500D02*
X109806773Y-54334166D01*
X109806773Y-54434166D01*
X109773440Y-54534166D01*
X109706773Y-54600833D01*
X109640106Y-54634166D01*
X109506773Y-54667500D01*
X109406773Y-54667500D01*
X109273440Y-54634166D01*
X109206773Y-54600833D01*
X109140106Y-54534166D01*
X109106773Y-54434166D01*
X109106773Y-54367500D01*
X109140106Y-54267500D01*
X109173440Y-54234166D01*
X109406773Y-54234166D01*
X109406773Y-54367500D01*
X109106773Y-53934166D02*
X109806773Y-53934166D01*
X109806773Y-53667500D01*
X109773440Y-53600833D01*
X109740106Y-53567500D01*
X109673440Y-53534166D01*
X109573440Y-53534166D01*
X109506773Y-53567500D01*
X109473440Y-53600833D01*
X109440106Y-53667500D01*
X109440106Y-53934166D01*
X109106773Y-53234166D02*
X109806773Y-53234166D01*
X109806773Y-52767500D02*
X109806773Y-52634166D01*
X109773440Y-52567500D01*
X109706773Y-52500833D01*
X109573440Y-52467500D01*
X109340106Y-52467500D01*
X109206773Y-52500833D01*
X109140106Y-52567500D01*
X109106773Y-52634166D01*
X109106773Y-52767500D01*
X109140106Y-52834166D01*
X109206773Y-52900833D01*
X109340106Y-52934166D01*
X109573440Y-52934166D01*
X109706773Y-52900833D01*
X109773440Y-52834166D01*
X109806773Y-52767500D01*
X109573440Y-51867500D02*
X109106773Y-51867500D01*
X109840106Y-52034166D02*
X109340106Y-52200833D01*
X109340106Y-51767500D01*
X119933440Y-54934166D02*
X119966773Y-55000833D01*
X119966773Y-55100833D01*
X119933440Y-55200833D01*
X119866773Y-55267500D01*
X119800106Y-55300833D01*
X119666773Y-55334166D01*
X119566773Y-55334166D01*
X119433440Y-55300833D01*
X119366773Y-55267500D01*
X119300106Y-55200833D01*
X119266773Y-55100833D01*
X119266773Y-55034166D01*
X119300106Y-54934166D01*
X119333440Y-54900833D01*
X119566773Y-54900833D01*
X119566773Y-55034166D01*
X119266773Y-54600833D02*
X119966773Y-54600833D01*
X119966773Y-54334166D01*
X119933440Y-54267500D01*
X119900106Y-54234166D01*
X119833440Y-54200833D01*
X119733440Y-54200833D01*
X119666773Y-54234166D01*
X119633440Y-54267500D01*
X119600106Y-54334166D01*
X119600106Y-54600833D01*
X119266773Y-53900833D02*
X119966773Y-53900833D01*
X119966773Y-53434166D02*
X119966773Y-53300833D01*
X119933440Y-53234166D01*
X119866773Y-53167500D01*
X119733440Y-53134166D01*
X119500106Y-53134166D01*
X119366773Y-53167500D01*
X119300106Y-53234166D01*
X119266773Y-53300833D01*
X119266773Y-53434166D01*
X119300106Y-53500833D01*
X119366773Y-53567500D01*
X119500106Y-53600833D01*
X119733440Y-53600833D01*
X119866773Y-53567500D01*
X119933440Y-53500833D01*
X119966773Y-53434166D01*
X119266773Y-52467500D02*
X119266773Y-52867500D01*
X119266773Y-52667500D02*
X119966773Y-52667500D01*
X119866773Y-52734166D01*
X119800106Y-52800833D01*
X119766773Y-52867500D01*
X119666773Y-52067500D02*
X119700106Y-52134166D01*
X119733440Y-52167500D01*
X119800106Y-52200833D01*
X119833440Y-52200833D01*
X119900106Y-52167500D01*
X119933440Y-52134166D01*
X119966773Y-52067500D01*
X119966773Y-51934166D01*
X119933440Y-51867500D01*
X119900106Y-51834166D01*
X119833440Y-51800833D01*
X119800106Y-51800833D01*
X119733440Y-51834166D01*
X119700106Y-51867500D01*
X119666773Y-51934166D01*
X119666773Y-52067500D01*
X119633440Y-52134166D01*
X119600106Y-52167500D01*
X119533440Y-52200833D01*
X119400106Y-52200833D01*
X119333440Y-52167500D01*
X119300106Y-52134166D01*
X119266773Y-52067500D01*
X119266773Y-51934166D01*
X119300106Y-51867500D01*
X119333440Y-51834166D01*
X119400106Y-51800833D01*
X119533440Y-51800833D01*
X119600106Y-51834166D01*
X119633440Y-51867500D01*
X119666773Y-51934166D01*
X140403440Y-53953214D02*
X140451059Y-54048452D01*
X140451059Y-54191309D01*
X140403440Y-54334166D01*
X140308201Y-54429404D01*
X140212963Y-54477023D01*
X140022487Y-54524642D01*
X139879630Y-54524642D01*
X139689154Y-54477023D01*
X139593916Y-54429404D01*
X139498678Y-54334166D01*
X139451059Y-54191309D01*
X139451059Y-54096071D01*
X139498678Y-53953214D01*
X139546297Y-53905595D01*
X139879630Y-53905595D01*
X139879630Y-54096071D01*
X139451059Y-53477023D02*
X140451059Y-53477023D01*
X139451059Y-52905595D01*
X140451059Y-52905595D01*
X139451059Y-52429404D02*
X140451059Y-52429404D01*
X140451059Y-52191309D01*
X140403440Y-52048452D01*
X140308201Y-51953214D01*
X140212963Y-51905595D01*
X140022487Y-51857976D01*
X139879630Y-51857976D01*
X139689154Y-51905595D01*
X139593916Y-51953214D01*
X139498678Y-52048452D01*
X139451059Y-52191309D01*
X139451059Y-52429404D01*
X137713440Y-54934166D02*
X137746773Y-55000833D01*
X137746773Y-55100833D01*
X137713440Y-55200833D01*
X137646773Y-55267500D01*
X137580106Y-55300833D01*
X137446773Y-55334166D01*
X137346773Y-55334166D01*
X137213440Y-55300833D01*
X137146773Y-55267500D01*
X137080106Y-55200833D01*
X137046773Y-55100833D01*
X137046773Y-55034166D01*
X137080106Y-54934166D01*
X137113440Y-54900833D01*
X137346773Y-54900833D01*
X137346773Y-55034166D01*
X137046773Y-54600833D02*
X137746773Y-54600833D01*
X137746773Y-54334166D01*
X137713440Y-54267500D01*
X137680106Y-54234166D01*
X137613440Y-54200833D01*
X137513440Y-54200833D01*
X137446773Y-54234166D01*
X137413440Y-54267500D01*
X137380106Y-54334166D01*
X137380106Y-54600833D01*
X137046773Y-53900833D02*
X137746773Y-53900833D01*
X137746773Y-53434166D02*
X137746773Y-53300833D01*
X137713440Y-53234166D01*
X137646773Y-53167500D01*
X137513440Y-53134166D01*
X137280106Y-53134166D01*
X137146773Y-53167500D01*
X137080106Y-53234166D01*
X137046773Y-53300833D01*
X137046773Y-53434166D01*
X137080106Y-53500833D01*
X137146773Y-53567500D01*
X137280106Y-53600833D01*
X137513440Y-53600833D01*
X137646773Y-53567500D01*
X137713440Y-53500833D01*
X137746773Y-53434166D01*
X137680106Y-52867500D02*
X137713440Y-52834166D01*
X137746773Y-52767500D01*
X137746773Y-52600833D01*
X137713440Y-52534166D01*
X137680106Y-52500833D01*
X137613440Y-52467500D01*
X137546773Y-52467500D01*
X137446773Y-52500833D01*
X137046773Y-52900833D01*
X137046773Y-52467500D01*
X137746773Y-52234166D02*
X137746773Y-51800833D01*
X137480106Y-52034166D01*
X137480106Y-51934166D01*
X137446773Y-51867500D01*
X137413440Y-51834166D01*
X137346773Y-51800833D01*
X137180106Y-51800833D01*
X137113440Y-51834166D01*
X137080106Y-51867500D01*
X137046773Y-51934166D01*
X137046773Y-52134166D01*
X137080106Y-52200833D01*
X137113440Y-52234166D01*
X104693440Y-73799166D02*
X104726773Y-73865833D01*
X104726773Y-73965833D01*
X104693440Y-74065833D01*
X104626773Y-74132500D01*
X104560106Y-74165833D01*
X104426773Y-74199166D01*
X104326773Y-74199166D01*
X104193440Y-74165833D01*
X104126773Y-74132500D01*
X104060106Y-74065833D01*
X104026773Y-73965833D01*
X104026773Y-73899166D01*
X104060106Y-73799166D01*
X104093440Y-73765833D01*
X104326773Y-73765833D01*
X104326773Y-73899166D01*
X104026773Y-73465833D02*
X104726773Y-73465833D01*
X104726773Y-73199166D01*
X104693440Y-73132500D01*
X104660106Y-73099166D01*
X104593440Y-73065833D01*
X104493440Y-73065833D01*
X104426773Y-73099166D01*
X104393440Y-73132500D01*
X104360106Y-73199166D01*
X104360106Y-73465833D01*
X104026773Y-72765833D02*
X104726773Y-72765833D01*
X104726773Y-72299166D02*
X104726773Y-72165833D01*
X104693440Y-72099166D01*
X104626773Y-72032500D01*
X104493440Y-71999166D01*
X104260106Y-71999166D01*
X104126773Y-72032500D01*
X104060106Y-72099166D01*
X104026773Y-72165833D01*
X104026773Y-72299166D01*
X104060106Y-72365833D01*
X104126773Y-72432500D01*
X104260106Y-72465833D01*
X104493440Y-72465833D01*
X104626773Y-72432500D01*
X104693440Y-72365833D01*
X104726773Y-72299166D01*
X104026773Y-71332500D02*
X104026773Y-71732500D01*
X104026773Y-71532500D02*
X104726773Y-71532500D01*
X104626773Y-71599166D01*
X104560106Y-71665833D01*
X104526773Y-71732500D01*
X104726773Y-71099166D02*
X104726773Y-70665833D01*
X104460106Y-70899166D01*
X104460106Y-70799166D01*
X104426773Y-70732500D01*
X104393440Y-70699166D01*
X104326773Y-70665833D01*
X104160106Y-70665833D01*
X104093440Y-70699166D01*
X104060106Y-70732500D01*
X104026773Y-70799166D01*
X104026773Y-70999166D01*
X104060106Y-71065833D01*
X104093440Y-71099166D01*
X104760106Y-69865833D02*
X103860106Y-70465833D01*
X104026773Y-69632500D02*
X104726773Y-69632500D01*
X104226773Y-69399166D01*
X104726773Y-69165833D01*
X104026773Y-69165833D01*
X104726773Y-68932500D02*
X104726773Y-68532500D01*
X104026773Y-68732500D02*
X104726773Y-68732500D01*
X104093440Y-67899166D02*
X104060106Y-67932500D01*
X104026773Y-68032500D01*
X104026773Y-68099166D01*
X104060106Y-68199166D01*
X104126773Y-68265833D01*
X104193440Y-68299166D01*
X104326773Y-68332500D01*
X104426773Y-68332500D01*
X104560106Y-68299166D01*
X104626773Y-68265833D01*
X104693440Y-68199166D01*
X104726773Y-68099166D01*
X104726773Y-68032500D01*
X104693440Y-67932500D01*
X104660106Y-67899166D01*
X104026773Y-67599166D02*
X104726773Y-67599166D01*
X104026773Y-67199166D02*
X104426773Y-67499166D01*
X104726773Y-67199166D02*
X104326773Y-67599166D01*
D11*
X146916560Y-71969880D02*
X146916560Y-53986680D01*
X141003440Y-48800000D02*
X141003440Y-77199999D01*
X146916560Y-53986680D02*
X141023760Y-53986680D01*
X141023760Y-71969880D02*
X146916560Y-71969880D01*
X93083440Y-77200000D02*
X93083440Y-48800001D01*
X141003440Y-77199999D02*
X93083440Y-77200000D01*
X93083440Y-48800001D02*
X141003440Y-48800000D01*
%TD*%
M02*
